<svg width="106" height="106" viewBox="0 0 106 106" fill="none" xmlns="http://www.w3.org/2000/svg">
<path fill-rule="evenodd" clip-rule="evenodd" d="M38.2974 53.3831C38.4572 53.333 38.7116 53.2618 38.9653 53.232C40.8991 53.0034 42.4735 53.9309 43.6962 55.1226C44.0421 55.4598 44.5963 55.4528 44.9334 55.1069C45.2706 54.7615 45.2636 54.2068 44.9177 53.8696C43.3339 52.3255 41.2648 51.1974 38.76 51.4943C37.4072 51.6541 36.8105 52.161 36.5976 52.6324C36.3613 53.1562 36.4751 53.8807 37.0497 54.6816C37.5682 55.405 38.4788 56.2945 39.3252 57.2763C40.055 58.1221 40.7515 59.0345 40.9662 59.9824C41.6784 63.1283 41.7426 66.049 45.6392 70.7233C47.4896 72.9423 47.8425 76.118 47.8909 78.0027C47.9032 78.4851 48.3051 78.8672 48.7881 78.855C49.2711 78.8421 49.6526 78.4402 49.6403 77.9578C49.5849 75.7895 49.1124 72.156 46.9838 69.6027C43.359 65.2551 43.3357 62.5216 42.673 59.5962C42.2378 57.6759 40.3111 55.79 39.0347 54.3491C38.7699 54.0505 38.5395 53.7745 38.3767 53.5231C38.3499 53.4811 38.3219 53.4304 38.2974 53.3831ZM63.4846 77.9403C63.4455 75.6058 63.5692 71.358 64.9791 69.2416C67.7482 65.0871 67.5236 59.7514 67.5236 59.7514C67.5026 59.269 67.0937 58.8945 66.6112 58.9149C66.1288 58.9359 65.7543 59.3448 65.7753 59.8272C65.7753 59.8272 65.9859 64.5755 63.5231 68.2715C61.9469 70.6358 61.6914 75.3608 61.7346 77.9695C61.7428 78.4525 62.1412 78.838 62.6242 78.8299C63.1072 78.8217 63.4928 78.4233 63.4846 77.9403ZM53.0861 59.9485V37.7037C53.0861 35.8925 51.6155 34.4219 49.8042 34.4219C47.9924 34.4219 46.5218 35.8925 46.5218 37.7037V59.9485C46.5218 60.4315 46.9138 60.8235 47.3968 60.8235C47.8798 60.8235 48.2718 60.4315 48.2718 59.9485V37.7037C48.2718 36.8585 48.9584 36.1719 49.8042 36.1719C50.6495 36.1719 51.3361 36.8585 51.3361 37.7037V59.9485C51.3361 60.4315 51.7281 60.8235 52.2111 60.8235C52.6941 60.8235 53.0861 60.4315 53.0861 59.9485ZM57.9003 59.9485V46.5803C57.9003 44.769 56.4297 43.2985 54.6185 43.2985C54.1355 43.2985 53.7435 43.6905 53.7435 44.1735C53.7435 44.6565 54.1355 45.0485 54.6185 45.0485C55.4637 45.0485 56.1503 45.735 56.1503 46.5803V59.9485C56.1503 60.4315 56.5423 60.8235 57.0253 60.8235C57.5083 60.8235 57.9003 60.4315 57.9003 59.9485ZM62.7146 59.9485V49.9601C62.7146 48.1489 61.244 46.6783 59.4322 46.6783C58.9497 46.6783 58.5572 47.0703 58.5572 47.5533C58.5572 48.0363 58.9497 48.4283 59.4322 48.4283C60.278 48.4283 60.9646 49.1149 60.9646 49.9601V59.9485C60.9646 60.4315 61.3566 60.8235 61.8396 60.8235C62.3226 60.8235 62.7146 60.4315 62.7146 59.9485Z" fill="black"/>
<path fill-rule="evenodd" clip-rule="evenodd" d="M67.4967 59.953L67.5288 52.9909C67.5288 51.1797 66.0582 49.7091 64.2464 49.7091C63.7634 49.7091 63.3714 50.1011 63.3714 50.5841C63.3714 51.0671 63.7634 51.4591 64.2464 51.4591C65.0916 51.4591 65.7782 52.1451 65.7788 52.9903L65.7467 59.9448C65.7444 60.4278 66.1346 60.8216 66.6176 60.8239C67.1006 60.8263 67.4944 60.436 67.4967 59.953ZM48.9292 26.0205V29.8384C48.9292 30.3214 49.3212 30.7134 49.8042 30.7134C50.2872 30.7134 50.6792 30.3214 50.6792 29.8384V26.0205C50.6792 25.5375 50.2872 25.1455 49.8042 25.1455C49.3212 25.1455 48.9292 25.5375 48.9292 26.0205ZM38.9355 37.7636H42.7535C43.2365 37.7636 43.6285 37.3716 43.6285 36.8886C43.6285 36.4056 43.2365 36.0136 42.7535 36.0136H38.9355C38.4525 36.0136 38.0605 36.4056 38.0605 36.8886C38.0605 37.3716 38.4525 37.7636 38.9355 37.7636ZM56.8544 37.7636H60.6723C61.1553 37.7636 61.5473 37.3716 61.5473 36.8886C61.5473 36.4056 61.1553 36.0136 60.6723 36.0136H56.8544C56.3714 36.0136 55.9794 36.4056 55.9794 36.8886C55.9794 37.3716 56.3714 37.7636 56.8544 37.7636ZM41.5005 29.8221L44.2001 32.5218C44.5414 32.8636 45.0955 32.8636 45.4374 32.5218C45.7786 32.1805 45.7786 31.6263 45.4374 31.2845L42.7377 28.5848C42.3959 28.2436 41.8417 28.2436 41.5005 28.5848C41.1586 28.9267 41.1586 29.4808 41.5005 29.8221ZM56.8707 28.5848L54.171 31.2845C53.8292 31.6263 53.8292 32.1805 54.171 32.5218C54.5123 32.8636 55.0665 32.8636 55.4083 32.5218L58.108 29.8221C58.4492 29.4808 58.4492 28.9267 58.108 28.5848C57.7661 28.2436 57.212 28.2436 56.8707 28.5848Z" fill="black"/>
<mask id="path-3-outside-1_197_416" maskUnits="userSpaceOnUse" x="0" y="0" width="106" height="106" fill="black">
<rect fill="white" width="106" height="106"/>
<path fill-rule="evenodd" clip-rule="evenodd" d="M53 103C80.6142 103 103 80.6142 103 53C103 25.3858 80.6142 3 53 3C25.3858 3 3 25.3858 3 53C3 80.6142 25.3858 103 53 103ZM53 89C72.8822 89 89 72.8822 89 53C89 33.1177 72.8822 17 53 17C33.1177 17 17 33.1177 17 53C17 72.8822 33.1177 89 53 89Z"/>
</mask>
<path fill-rule="evenodd" clip-rule="evenodd" d="M53 103C80.6142 103 103 80.6142 103 53C103 25.3858 80.6142 3 53 3C25.3858 3 3 25.3858 3 53C3 80.6142 25.3858 103 53 103ZM53 89C72.8822 89 89 72.8822 89 53C89 33.1177 72.8822 17 53 17C33.1177 17 17 33.1177 17 53C17 72.8822 33.1177 89 53 89Z" fill="#E82A4C"/>
<path d="M100 53C100 78.9574 78.9574 100 53 100V106C82.2711 106 106 82.2711 106 53H100ZM53 6C78.9574 6 100 27.0426 100 53H106C106 23.7289 82.2711 0 53 0V6ZM6 53C6 27.0426 27.0426 6 53 6V0C23.7289 0 0 23.7289 0 53H6ZM53 100C27.0426 100 6 78.9574 6 53H0C0 82.2711 23.7289 106 53 106V100ZM86 53C86 71.2254 71.2254 86 53 86V92C74.5391 92 92 74.5391 92 53H86ZM53 20C71.2254 20 86 34.7746 86 53H92C92 31.4609 74.5391 14 53 14V20ZM20 53C20 34.7746 34.7746 20 53 20V14C31.4609 14 14 31.4609 14 53H20ZM53 86C34.7746 86 20 71.2254 20 53H14C14 74.5391 31.4609 92 53 92V86Z" fill="#1E1E1E" mask="url(#path-3-outside-1_197_416)"/>
</svg>
