<svg width="81" height="99" viewBox="0 0 81 99" fill="none" xmlns="http://www.w3.org/2000/svg">
<path d="M60.1062 48.3326H68.0882C68.5174 48.3433 68.9333 48.1834 69.2449 47.8879C69.5564 47.5925 69.7381 47.1856 69.7501 46.7564V30.6645C69.7397 30.2309 69.5599 29.8187 69.2493 29.5159C68.9387 29.2132 68.5219 29.0441 68.0882 29.0448H60.1062V48.3326ZM62.5768 51.0239C60.7385 54.9074 57.9625 58.2722 54.4993 60.8152V67.6204H65.0484C67.3219 67.5873 69.5806 67.9913 71.7018 68.8104L68.088 51.0239H62.5768ZM20.4384 27.2129C24.4507 27.7218 30.0836 27.9676 35.7917 26.6029C43.2464 24.8203 48.848 20.7661 52.4353 14.5698C52.5704 14.3371 52.7716 14.1499 53.0134 14.0319C53.2551 13.9139 53.5265 13.8705 53.793 13.9071C54.0596 13.9437 54.3092 14.0587 54.5102 14.2375C54.7112 14.4164 54.8544 14.6509 54.9218 14.9113C54.9389 14.9786 56.5178 21.2644 62.5732 25.2716V23.0813C62.5732 17.0141 60.1631 11.1955 55.873 6.90537C51.5828 2.61525 45.7642 0.205078 39.697 0.205078C33.6299 0.205078 27.8112 2.61525 23.5211 6.90537C19.231 11.1955 16.8208 17.0141 16.8208 23.0813V26.3535H19.1836C19.4549 26.3537 19.7199 26.4359 19.9438 26.5892C20.1677 26.7426 20.3401 26.96 20.4384 27.2129Z" fill="#FFFFFA"/>
<path d="M59.5407 51.0236H58.7315C58.5586 51.0278 58.3866 50.9971 58.2258 50.9333C58.065 50.8694 57.9188 50.7738 57.7958 50.6521C57.6728 50.5304 57.5757 50.3852 57.5102 50.2251C57.4447 50.065 57.4122 49.8933 57.4146 49.7203V27.6999C57.4116 27.5248 57.4434 27.3509 57.5082 27.1881C57.573 27.0254 57.6694 26.8772 57.7919 26.752C57.9144 26.6268 58.0606 26.5272 58.2218 26.4589C58.3831 26.3907 58.5564 26.3551 58.7315 26.3543H59.4658C56.8073 24.1596 54.6943 21.3781 53.2928 18.2285C46.2007 28.1613 34.9272 30.3045 26.5637 30.3045C24.5812 30.302 22.6007 30.1789 20.6332 29.9358V49.7203C20.6219 49.9935 20.5284 50.2569 20.3648 50.4761C20.2013 50.6952 19.9755 50.8598 19.7168 50.9485C23.7789 58.3169 31.3635 62.9872 39.6281 62.9872C47.8581 62.9872 55.4663 58.4247 59.5407 51.0236ZM45.8352 38.0662C46.1921 38.0662 46.5343 38.208 46.7867 38.4604C47.0391 38.7127 47.1808 39.055 47.1808 39.4119C47.1761 39.7816 47.2449 40.1485 47.3831 40.4913C47.5213 40.8342 47.7263 41.1462 47.986 41.4093C48.2458 41.6724 48.5552 41.8812 48.8963 42.0238C49.2374 42.1663 49.6034 42.2398 49.9731 42.2398C50.3428 42.2398 50.7088 42.1663 51.0499 42.0238C51.391 41.8812 51.7004 41.6724 51.9601 41.4093C52.2199 41.1462 52.4248 40.8342 52.563 40.4913C52.7012 40.1485 52.77 39.7816 52.7653 39.4119C52.7653 39.055 52.9071 38.7127 53.1595 38.4604C53.4118 38.208 53.7541 38.0662 54.111 38.0662C54.4679 38.0662 54.8101 38.208 55.0625 38.4604C55.3149 38.7127 55.4566 39.055 55.4566 39.4119C55.4632 40.1362 55.3262 40.8546 55.0535 41.5256C54.7809 42.1967 54.378 42.8071 53.8682 43.3215C53.3583 43.836 52.7516 44.2444 52.0831 44.5231C51.4145 44.8018 50.6974 44.9453 49.9731 44.9453C49.2488 44.9453 48.5316 44.8018 47.8631 44.5231C47.1945 44.2444 46.5878 43.836 46.0779 43.3215C45.5681 42.8071 45.1652 42.1967 44.8926 41.5256C44.62 40.8546 44.483 40.1362 44.4895 39.4119C44.4895 39.055 44.6313 38.7127 44.8836 38.4604C45.136 38.208 45.4783 38.0662 45.8352 38.0662ZM29.2835 44.8957C27.8297 44.894 26.4358 44.3157 25.4078 43.2877C24.3797 42.2596 23.8014 40.8658 23.7998 39.4119C23.7998 39.055 23.9415 38.7127 24.1939 38.4604C24.4463 38.208 24.7885 38.0662 25.1454 38.0662C25.5023 38.0662 25.8446 38.208 26.0969 38.4604C26.3493 38.7127 26.4911 39.055 26.4911 39.4119C26.4864 39.7816 26.5552 40.1485 26.6934 40.4913C26.8316 40.8342 27.0365 41.1462 27.2963 41.4093C27.556 41.6724 27.8654 41.8812 28.2065 42.0238C28.5476 42.1663 28.9136 42.2398 29.2833 42.2398C29.653 42.2398 30.019 42.1663 30.3601 42.0238C30.7012 41.8812 31.0106 41.6724 31.2704 41.4093C31.5301 41.1462 31.735 40.8342 31.8733 40.4913C32.0115 40.1485 32.0803 39.7816 32.0756 39.4119C32.0756 39.055 32.2173 38.7127 32.4697 38.4604C32.7221 38.208 33.0643 38.0662 33.4212 38.0662C33.7781 38.0662 34.1204 38.208 34.3728 38.4604C34.6251 38.7127 34.7669 39.055 34.7669 39.4119C34.7653 40.8659 34.187 42.2598 33.1588 43.2879C32.1306 44.316 30.7366 44.8942 29.2826 44.8957H29.2835ZM16.6794 51.0236H11.8624L8.54199 68.8287C10.6766 67.9972 12.9519 67.5868 15.2425 67.6201H25.7916V61.4935C21.8424 58.9157 18.6875 55.2908 16.6794 51.0236ZM53.4801 70.3114L41.0424 77.8381V98.7945H80.2908V85.3761C80.2908 76.9861 73.4382 70.3114 65.048 70.3114H53.4801Z" fill="#FFFFFA"/>
<path d="M51.8079 68.0675V62.5368C47.9952 64.571 43.9656 65.6991 39.6606 65.6991C35.7787 65.7006 31.9505 64.7921 28.4831 63.0466V68.0866L39.8504 75.4953L51.8079 68.0675ZM38.3513 77.8195L26.7302 70.3118H15.2427C6.85255 70.3118 0 76.9865 0 85.3765V98.795H38.3513V77.8195ZM8.88584 48.3327H17.9421V29.0449H8.88584C7.99322 29.0449 7.17685 29.7723 7.17685 30.6646V46.7565C7.17685 47.6491 7.99322 48.3327 8.88584 48.3327Z" fill="#FFFFFA"/>
</svg>
