<svg width="106" height="106" viewBox="0 0 106 106" fill="none" xmlns="http://www.w3.org/2000/svg">
<path d="M46.8191 59.6382C53.8989 59.6382 59.6382 53.8989 59.6382 46.8191C59.6382 39.7393 53.8989 34 46.8191 34C39.7393 34 34 39.7393 34 46.8191C34 53.8989 39.7393 59.6382 46.8191 59.6382Z" stroke="#1E1E1E" stroke-width="3" stroke-linecap="round" stroke-linejoin="round"/>
<path d="M38.2729 46.8195C38.2729 44.5529 39.1733 42.3792 40.776 40.7765C42.3787 39.1738 44.5525 38.2734 46.819 38.2734" stroke="#1E1E1E" stroke-width="2" stroke-linecap="round" stroke-linejoin="round"/>
<path d="M60.4774 60.4508L60.4653 60.4629C59.5776 61.3506 59.5776 62.79 60.4653 63.6777L65.8557 69.0681C66.7434 69.9558 68.1828 69.9558 69.0706 69.0681L69.0826 69.056C69.9704 68.1682 69.9704 66.7289 69.0826 65.8411L63.6923 60.4508C62.8045 59.563 61.3652 59.563 60.4774 60.4508Z" stroke="#1E1E1E" stroke-width="3" stroke-linejoin="round"/>
<path d="M60.4586 60.4591L55.895 55.8955" stroke="#1E1E1E" stroke-width="2" stroke-linecap="round" stroke-linejoin="round"/>
<mask id="path-5-outside-1_197_412" maskUnits="userSpaceOnUse" x="0" y="0" width="106" height="106" fill="black">
<rect fill="white" width="106" height="106"/>
<path fill-rule="evenodd" clip-rule="evenodd" d="M53 103C80.6142 103 103 80.6142 103 53C103 25.3858 80.6142 3 53 3C25.3858 3 3 25.3858 3 53C3 80.6142 25.3858 103 53 103ZM53 89C72.8822 89 89 72.8822 89 53C89 33.1177 72.8822 17 53 17C33.1177 17 17 33.1177 17 53C17 72.8822 33.1177 89 53 89Z"/>
</mask>
<path fill-rule="evenodd" clip-rule="evenodd" d="M53 103C80.6142 103 103 80.6142 103 53C103 25.3858 80.6142 3 53 3C25.3858 3 3 25.3858 3 53C3 80.6142 25.3858 103 53 103ZM53 89C72.8822 89 89 72.8822 89 53C89 33.1177 72.8822 17 53 17C33.1177 17 17 33.1177 17 53C17 72.8822 33.1177 89 53 89Z" fill="#E82A4C"/>
<path d="M100 53C100 78.9574 78.9574 100 53 100V106C82.2711 106 106 82.2711 106 53H100ZM53 6C78.9574 6 100 27.0426 100 53H106C106 23.7289 82.2711 0 53 0V6ZM6 53C6 27.0426 27.0426 6 53 6V0C23.7289 0 0 23.7289 0 53H6ZM53 100C27.0426 100 6 78.9574 6 53H0C0 82.2711 23.7289 106 53 106V100ZM86 53C86 71.2254 71.2254 86 53 86V92C74.5391 92 92 74.5391 92 53H86ZM53 20C71.2254 20 86 34.7746 86 53H92C92 31.4609 74.5391 14 53 14V20ZM20 53C20 34.7746 34.7746 20 53 20V14C31.4609 14 14 31.4609 14 53H20ZM53 86C34.7746 86 20 71.2254 20 53H14C14 74.5391 31.4609 92 53 92V86Z" fill="#1E1E1E" mask="url(#path-5-outside-1_197_412)"/>
</svg>
