<svg width="98" height="98" viewBox="0 0 98 98" fill="none" xmlns="http://www.w3.org/2000/svg">
<path d="M21.425 18.4907H21.5779C21.8839 18.4907 22.1899 18.3377 22.3429 17.8787C22.6489 16.9608 23.4139 16.3488 24.3318 16.3488C24.7908 16.3488 25.0968 16.0428 25.0968 15.5838C25.0968 15.1249 24.7908 14.8189 24.3318 14.8189C22.6489 14.8189 21.272 15.8898 20.813 17.5727C20.813 18.0317 20.966 18.4907 21.425 18.4907ZM44.9858 6.86328C42.9969 6.86328 41.314 8.5462 41.314 10.5351C41.314 10.9941 41.6199 11.3001 42.0789 11.3001C42.5379 11.3001 42.8439 10.9941 42.8439 10.5351C42.8439 9.31116 43.7618 8.3932 44.9858 8.3932C46.2097 8.3932 47.1277 9.46415 47.1277 10.5351C47.1277 10.9941 47.4336 11.3001 47.8926 11.3001C48.3516 11.3001 48.6576 10.9941 48.6576 10.5351C48.6576 8.5462 47.1277 6.86328 44.9858 6.86328Z" fill="#FFFFFA"/>
<path d="M24.4846 29.2005C29.2273 29.2005 33.5111 25.9877 34.7351 21.3979C36.265 15.7372 32.8991 9.92351 27.2384 8.39359C21.5777 6.86366 15.764 10.2295 14.3871 15.8902C12.5512 22.4689 17.4469 29.2005 24.4846 29.2005ZM17.1409 16.6552C18.2119 12.6774 22.3427 10.2295 26.3205 11.3004C30.2983 12.3714 32.7462 16.5022 31.6752 20.48C30.7573 23.6928 27.8504 25.9877 24.4846 25.9877C19.5888 26.1407 15.917 21.3979 17.1409 16.6552Z" fill="#FFFFFA"/>
<path d="M52.7881 3.49754C48.9632 -0.786241 42.2316 -1.24522 37.9478 2.73258C30.7572 9.15826 35.3469 21.0917 44.9855 21.0917C54.012 21.0917 58.9077 10.2292 52.7881 3.49754ZM44.9855 18.0318C38.1008 18.0318 34.888 9.46424 39.9367 5.02747C42.9966 2.2736 47.7393 2.57959 50.4932 5.63943C54.9299 10.3822 51.4111 18.0318 44.9855 18.0318Z" fill="#FFFFFA"/>
<path d="M66.5575 25.528C73.1362 25.528 78.0319 19.7143 76.961 13.2886C76.196 8.08685 71.7593 4.41504 66.5575 4.41504C60.1318 4.41504 55.0831 10.2287 56.154 16.6544C56.919 21.7032 61.3558 25.528 66.5575 25.528ZM66.5575 7.47488C70.2293 7.47488 73.2892 10.0758 73.9012 13.7476C74.6661 18.3373 71.1473 22.4681 66.5575 22.4681C62.8857 22.4681 59.6729 19.8673 59.2139 16.1954C58.4489 11.6057 61.9678 7.47488 66.5575 7.47488ZM79.2559 61.9401C73.4422 61.9401 68.6994 66.6829 68.6994 72.4966C68.6994 73.7205 69.0054 74.9445 69.3114 76.1684C69.1584 76.0154 68.8524 75.8624 68.6994 75.7094C67.1695 74.7915 65.3336 74.3325 63.4977 74.3325C59.6729 74.3325 56.154 76.3214 54.3181 79.6872C50.1873 86.7249 55.3891 95.4454 63.4977 95.4454C67.3225 95.4454 70.8413 93.4565 72.6772 90.0907C74.3601 87.3369 74.5131 83.971 73.4422 81.2172C75.1251 82.4411 77.114 83.0531 79.4089 83.0531C85.2226 83.0531 89.9653 78.3103 89.9653 72.4966C89.9653 66.6829 85.0696 61.9401 79.2559 61.9401ZM69.9234 88.5608C68.5464 90.8557 66.0985 92.3856 63.4977 92.3856C57.837 92.3856 54.1651 86.1129 57.072 81.2172C58.4489 78.9223 60.8968 77.3923 63.6507 77.3923C65.0276 77.3923 66.2515 77.6983 67.3225 78.4633C70.6883 80.4522 71.9123 85.042 69.9234 88.5608ZM79.2559 79.9932C75.1251 79.9932 71.7593 76.6274 71.7593 72.4966C71.7593 68.3658 75.1251 65 79.2559 65C83.3867 65 86.7525 68.3658 86.7525 72.4966C86.7525 76.6274 83.3867 79.9932 79.2559 79.9932ZM22.9547 66.9889C17.141 66.3769 11.9393 70.6607 11.3273 76.3214C10.7153 82.1351 14.9991 87.3368 20.6598 87.9488C26.4735 88.5608 31.6753 84.277 32.2872 78.6163C32.8992 72.8026 28.7684 67.6008 22.9547 66.9889ZM29.2274 78.3103C28.7684 82.4411 25.0966 85.5009 20.9658 85.042C16.835 84.583 13.9282 80.9112 14.2342 76.7804C14.6931 72.6496 18.3649 69.7427 22.4957 70.0487C26.7795 70.5077 29.6864 74.1795 29.2274 78.3103Z" fill="#FFFFFA"/>
<path d="M18.8239 65.1529C24.3316 58.2682 19.4359 48.0178 10.5623 48.0178C0.617824 48.0178 -3.81895 60.5631 3.98365 66.8358C8.42043 70.3546 15.1521 69.7427 18.8239 65.1529ZM5.97255 64.3879C0.464832 59.9512 3.67767 51.0776 10.7153 51.0776C16.988 51.0776 20.5068 58.4212 16.529 63.317C13.9282 66.3768 9.18539 66.9888 5.97255 64.3879ZM86.9055 41.2861C84.9166 41.2861 82.9277 41.8981 81.2448 42.969C76.349 46.1819 74.9721 52.7605 78.1849 57.5033C80.1738 60.5631 83.5396 62.2461 87.0585 62.2461C91.9542 62.2461 96.238 58.8802 97.3089 53.8315C98.6859 47.5588 93.6371 41.2861 86.9055 41.2861ZM94.2491 53.5255C93.4841 57.0443 90.4243 59.4922 86.9055 59.4922C79.4088 59.4922 76.655 49.7007 82.7747 45.7229C83.9986 44.9579 85.3755 44.4989 86.9055 44.4989C91.6482 44.346 95.32 48.7827 94.2491 53.5255ZM72.5242 26.1399C69.4643 33.1775 74.5131 40.9801 82.1627 40.9801C86.2935 40.9801 90.1183 38.5322 91.8012 34.7074C94.8611 27.6698 89.8123 19.8672 82.1627 19.8672C78.0319 19.8672 74.2071 22.3151 72.5242 26.1399ZM82.1627 22.927C87.5174 22.927 91.1892 28.5877 89.0474 33.4835C87.8234 36.2374 85.2225 37.9203 82.1627 37.9203C76.808 37.9203 73.1362 32.2596 75.2781 27.3638C76.502 24.6099 79.2559 22.927 82.1627 22.927ZM11.6333 47.0998C18.8239 47.0998 23.8727 40.0622 21.7308 33.3305C20.3538 28.8937 16.223 25.9869 11.6333 25.9869C4.44263 25.9869 -0.606114 33.0245 1.53578 39.7562C3.0657 44.193 7.0435 47.0998 11.6333 47.0998ZM11.6333 29.0467C14.8461 29.0467 17.753 31.1886 18.8239 34.2485C20.3538 38.9912 16.835 44.04 11.6333 44.04C8.42043 44.04 5.51358 41.8981 4.44263 38.8382C2.91271 33.9425 6.58452 29.0467 11.6333 29.0467ZM41.4668 76.7803C37.183 76.7803 32.8992 79.5342 31.3693 84.1239C29.2274 90.8556 34.1231 97.8932 41.4668 97.8932C49.2694 97.8932 54.4711 89.6317 50.7993 82.594C49.1164 78.9222 45.4446 76.7803 41.4668 76.7803ZM41.4668 94.8334C36.265 94.8334 32.7462 89.7847 34.2761 85.0419C35.3471 81.8291 38.2539 79.8402 41.4668 79.8402C44.3736 79.8402 46.8215 81.3701 48.1984 83.971C50.7993 88.8667 47.1275 94.8334 41.4668 94.8334Z" fill="#FFFFFA"/>
<path d="M10.7152 54.9028C9.64425 54.9028 8.57331 55.3618 7.80834 56.2797C7.19637 57.0447 6.89039 58.1156 7.04338 59.0336C7.04338 59.4926 7.34937 59.6456 7.80834 59.6456C7.80834 59.6456 7.80834 59.6456 7.96134 59.6456C8.42031 59.6456 8.7263 59.1866 8.57331 58.7276C8.42031 58.1156 8.7263 57.5037 9.03228 57.0447C9.49126 56.5857 10.1032 56.2797 10.7152 56.2797C11.1742 56.2797 11.4802 55.9737 11.4802 55.5148C11.4802 55.0558 11.0212 54.9028 10.7152 54.9028ZM8.87929 38.0736C9.03228 38.0736 9.03228 38.0736 9.18527 38.0736C9.64425 37.9207 9.79724 37.4617 9.64425 37.1557C9.18527 36.0847 9.79724 34.8608 11.0212 34.4018C11.3272 34.4018 11.6332 33.9429 11.4802 33.4839C11.3272 33.0249 10.8682 32.8719 10.5622 33.0249C8.57331 33.6369 7.50236 35.7788 8.26732 37.6147C8.26732 37.9207 8.57331 38.0736 8.87929 38.0736ZM20.0477 76.1687C20.3537 75.8627 20.2007 75.4038 19.8947 75.0978C19.5887 74.7918 19.1298 74.9448 18.8238 75.2508C17.9058 76.6277 17.9058 78.4636 18.9768 79.6875C19.1298 79.8405 19.2828 79.9935 19.5887 79.9935C19.7417 79.9935 19.8947 79.9935 20.0477 79.8405C20.3537 79.5346 20.3537 79.0756 20.2007 78.7696C19.5887 78.0046 19.5887 76.9337 20.0477 76.1687ZM39.7837 84.1243C38.5598 84.7363 38.1008 85.6542 37.9478 86.2662C37.7948 86.8782 37.6418 87.9491 38.1008 89.0201C38.2538 89.3261 38.5598 89.479 38.7128 89.479C38.8658 89.479 39.0188 89.479 39.0188 89.3261C39.3248 89.1731 39.4777 88.7141 39.3248 88.2551C39.0188 87.6431 39.0188 86.8782 39.1718 86.5722C39.3248 86.2662 39.4777 85.6542 40.2427 85.3483C40.5487 85.1953 40.7017 84.7363 40.5487 84.2773C40.7017 83.9713 40.2427 83.8183 39.7837 84.1243ZM62.1206 81.3705C61.3556 81.6764 60.5907 82.2884 60.2847 82.9004C59.8257 83.6653 59.6727 84.5833 59.8257 85.5013C59.9787 85.8072 60.2847 86.1132 60.5907 86.1132H60.7437C61.2027 85.9602 61.3556 85.6542 61.3556 85.1953C61.2027 84.7363 61.3556 84.1243 61.5086 83.6653C61.8146 83.0534 62.2736 82.9004 62.5796 82.7474C63.0386 82.5944 63.1916 82.1354 63.0386 81.8294C62.8856 81.5235 62.5796 81.2175 62.1206 81.3705ZM79.2557 68.8251C78.7968 68.8251 78.4908 69.1311 78.4908 69.5901C78.4908 70.049 78.7968 70.355 79.2557 70.355C80.4797 70.355 81.3976 71.273 81.3976 72.4969C81.3976 72.9559 81.7036 73.2619 82.1626 73.2619C82.6216 73.2619 82.9276 72.9559 82.9276 72.4969C82.9276 70.508 81.2446 68.8251 79.2557 68.8251ZM86.9054 48.1711C86.4464 48.1711 86.1404 48.4771 86.1404 48.9361C86.1404 49.3951 86.4464 49.7011 86.9054 49.7011C87.6703 49.7011 88.2823 50.007 88.7413 50.619C88.8943 50.925 89.0472 51.231 89.0472 51.537C89.0472 51.9959 89.3532 52.1489 89.8122 52.1489C89.8122 52.1489 89.8122 52.1489 89.9652 52.1489C90.4242 52.1489 90.7302 51.69 90.5772 51.231C90.5772 50.619 90.2712 50.16 89.9652 49.7011C89.3532 48.9361 88.2823 48.1711 86.9054 48.1711ZM82.1626 28.2821C82.4686 28.2821 82.7746 28.2821 83.0806 28.4351C83.8455 28.7411 84.1515 29.3531 84.1515 29.6591C84.3045 29.9651 84.6105 30.118 84.9165 30.118C85.0695 30.118 85.0695 30.118 85.2224 30.118C85.6814 29.9651 85.8344 29.5061 85.6814 29.2001C85.5284 28.7411 84.9165 27.6702 83.6925 27.2112C83.2335 27.0582 82.7746 26.9052 82.1626 26.9052C81.7036 26.9052 81.3976 27.2112 81.3976 27.6702C81.3976 28.1291 81.8566 28.2821 82.1626 28.2821ZM65.4864 13.1359C66.2514 12.6769 67.3223 12.8299 67.9343 13.4419C68.0873 13.5949 68.2403 13.5949 68.3933 13.5949C68.5463 13.5949 68.8523 13.4419 69.0053 13.2889C69.3112 12.9829 69.3112 12.5239 69.0053 12.2179C67.7813 11.147 66.0984 10.994 64.7215 11.606C64.4155 11.759 64.2625 12.218 64.4155 12.6769C64.7215 13.1359 65.1805 13.2889 65.4864 13.1359Z" fill="#FFFFFA"/>
</svg>
