<svg width="106" height="106" viewBox="0 0 106 106" fill="none" xmlns="http://www.w3.org/2000/svg">
<path d="M54.0921 31C43.0875 31 34.1752 39.7587 34.1752 50.5737C34.1752 54.9312 35.6265 58.9563 38.0749 62.2113L33 73L34.3266 72.3963L44.5477 67.7588C47.3789 69.2812 50.6287 70.1475 54.0832 70.1475C65.0788 70.1475 74 61.3887 74 50.5737C74.0089 39.7587 65.0877 31 54.0921 31ZM64.7138 58.93C64.598 59.4725 64.3576 59.9888 64.0104 60.4438C63.5831 61.0037 63.031 61.4237 62.3989 61.6863C61.7668 61.9488 61.0723 62.0537 60.3778 61.9662C58.517 61.7475 56.7186 61.1612 55.1071 60.2162C53.2463 59.1312 50.7444 57.4425 48.8569 55.0275C46.8447 52.7087 45.7496 49.9963 45.0552 47.975C44.4586 46.2337 44.2449 44.3787 44.4141 42.55C44.4764 41.8587 44.7257 41.2113 45.1175 40.66C45.5092 40.1088 46.0523 39.6625 46.6934 39.3737C47.2187 39.1287 47.7885 39.015 48.3494 39.015C49.1507 39.015 50.1301 39.0063 50.8067 39.4788C51.8573 40.205 52.3025 41.64 52.3025 42.9C52.3025 43.0138 52.2936 43.1362 52.2847 43.25C52.2224 43.9412 52.16 44.545 51.7594 45.0963C51.3676 45.6475 50.6465 46.1287 50.0054 46.4263C50.4951 49.0163 51.3409 50.9412 52.5073 52.1838C53.0059 52.8663 53.6825 53.5138 54.5461 54.1175C55.4098 54.7213 56.4515 55.2725 57.689 55.78C58.1164 55.2288 58.7485 54.6338 59.3807 54.3713C60.0039 54.1087 60.6271 54.17 61.3216 54.2575C61.4373 54.275 61.562 54.2925 61.6777 54.3188C62.9242 54.5812 64.2597 55.3075 64.7672 56.4713C65.0877 57.2238 64.8829 58.16 64.7138 58.93Z" fill="#1E1E1E"/>
<mask id="path-2-outside-1_197_418" maskUnits="userSpaceOnUse" x="0" y="0" width="106" height="106" fill="black">
<rect fill="white" width="106" height="106"/>
<path fill-rule="evenodd" clip-rule="evenodd" d="M53 103C80.6142 103 103 80.6142 103 53C103 25.3858 80.6142 3 53 3C25.3858 3 3 25.3858 3 53C3 80.6142 25.3858 103 53 103ZM53 89C72.8822 89 89 72.8822 89 53C89 33.1177 72.8822 17 53 17C33.1177 17 17 33.1177 17 53C17 72.8822 33.1177 89 53 89Z"/>
</mask>
<path fill-rule="evenodd" clip-rule="evenodd" d="M53 103C80.6142 103 103 80.6142 103 53C103 25.3858 80.6142 3 53 3C25.3858 3 3 25.3858 3 53C3 80.6142 25.3858 103 53 103ZM53 89C72.8822 89 89 72.8822 89 53C89 33.1177 72.8822 17 53 17C33.1177 17 17 33.1177 17 53C17 72.8822 33.1177 89 53 89Z" fill="#E82A4C"/>
<path d="M100 53C100 78.9574 78.9574 100 53 100V106C82.2711 106 106 82.2711 106 53H100ZM53 6C78.9574 6 100 27.0426 100 53H106C106 23.7289 82.2711 0 53 0V6ZM6 53C6 27.0426 27.0426 6 53 6V0C23.7289 0 0 23.7289 0 53H6ZM53 100C27.0426 100 6 78.9574 6 53H0C0 82.2711 23.7289 106 53 106V100ZM86 53C86 71.2254 71.2254 86 53 86V92C74.5391 92 92 74.5391 92 53H86ZM53 20C71.2254 20 86 34.7746 86 53H92C92 31.4609 74.5391 14 53 14V20ZM20 53C20 34.7746 34.7746 20 53 20V14C31.4609 14 14 31.4609 14 53H20ZM53 86C34.7746 86 20 71.2254 20 53H14C14 74.5391 31.4609 92 53 92V86Z" fill="#1E1E1E" mask="url(#path-2-outside-1_197_418)"/>
</svg>
