<svg width="106" height="106" viewBox="0 0 106 106" fill="none" xmlns="http://www.w3.org/2000/svg">
<path d="M71.9 34H34.1C33.543 34 33.0089 34.2212 32.6151 34.6151C32.2212 35.0089 32 35.543 32 36.1V65.5C32 66.057 32.2212 66.5911 32.6151 66.9849C33.0089 67.3787 33.543 67.6 34.1 67.6H47.4392L46.1792 71.8C45.7052 71.7779 45.2317 71.852 44.7872 72.0177C44.3426 72.1835 43.9362 72.4375 43.5924 72.7646C43.2487 73.0916 42.9746 73.4848 42.7869 73.9206C42.5992 74.3563 42.5016 74.8255 42.5 75.3C42.5 75.4856 42.5737 75.6637 42.705 75.795C42.8363 75.9263 43.0143 76 43.2 76H62.8C62.9857 76 63.1637 75.9263 63.295 75.795C63.4263 75.6637 63.5 75.4856 63.5 75.3C63.4984 74.8255 63.4008 74.3563 63.2131 73.9206C63.0254 73.4848 62.7513 73.0916 62.4076 72.7646C62.0638 72.4375 61.6574 72.1835 61.2128 72.0177C60.7683 71.852 60.2948 71.7779 59.8208 71.8L58.5608 67.6H65.3816L67.4648 71.205C67.5576 71.3658 67.7105 71.4831 67.8898 71.5311C68.0692 71.5792 68.2602 71.554 68.421 71.4612L72.663 69.0112C72.823 68.9175 72.9396 68.7645 72.9875 68.5853C73.0355 68.4062 73.0109 68.2154 72.9192 68.0543L72.5846 67.4761C72.9963 67.3341 73.3537 67.0677 73.6073 66.7136C73.8608 66.3596 73.9981 65.9355 74 65.5V36.1C74 35.543 73.7787 35.0089 73.3849 34.6151C72.9911 34.2212 72.457 34 71.9 34ZM61.9803 74.6H44.0197C44.165 74.1908 44.4333 73.8367 44.7879 73.586C45.1424 73.3354 45.5658 73.2005 46 73.2H60C60.4342 73.2005 60.8576 73.3354 61.2121 73.586C61.5667 73.8367 61.835 74.1908 61.9803 74.6ZM58.3592 71.8H47.6408L48.9008 67.6H57.0978L58.3592 71.8ZM34.1 66.2C33.9143 66.2 33.7363 66.1263 33.605 65.995C33.4737 65.8637 33.4 65.6857 33.4 65.5V62H60.3941L60.0826 64.4745C60.0687 64.6031 60.0904 64.7331 60.1453 64.8502C60.2003 64.9673 60.2863 65.0671 60.394 65.1387C60.5018 65.2102 60.6271 65.2508 60.7564 65.2561C60.8856 65.2613 61.0138 65.2309 61.127 65.1682L63.2648 63.9362L64.5731 66.2H34.1ZM68.33 69.8988C67.4151 68.3168 65.5853 65.143 64.6739 63.5708L64.13 62.63C64.0371 62.4693 63.8841 62.3522 63.7048 62.3043C63.5255 62.2564 63.3345 62.2816 63.1738 62.3745L61.6513 63.2523L62.5284 56.2712L63.3306 56.6093C63.5017 56.6814 63.6944 56.6826 63.8664 56.6127C64.0383 56.5427 64.1755 56.4073 64.2476 56.2362C64.3197 56.0651 64.3209 55.8724 64.251 55.7004C64.181 55.5285 64.0456 55.3913 63.8745 55.3192L62.2211 54.6192C62.134 54.5808 62.0398 54.5614 61.9447 54.5621C61.8496 54.5628 61.7557 54.5837 61.6692 54.6234C61.5827 54.6631 61.5057 54.7207 61.4431 54.7924C61.3805 54.864 61.3339 54.9482 61.3062 55.0392C61.1347 55.6783 60.672 60.0351 60.5726 60.6007H33.4V36.1C33.4 35.9143 33.4737 35.7363 33.605 35.605C33.7363 35.4737 33.9143 35.4 34.1 35.4H71.9C72.0857 35.4 72.2637 35.4737 72.395 35.605C72.5262 35.7363 72.6 35.9143 72.6 36.1V60.6H69.0419L70.927 59.5122C71.0384 59.4461 71.1294 59.3505 71.19 59.2359C71.2506 59.1214 71.2784 58.9923 71.2704 58.863C71.2623 58.7337 71.2188 58.6091 71.1445 58.5029C71.0702 58.3968 70.968 58.3131 70.8493 58.2613L68.4833 57.2631C68.3122 57.191 68.1195 57.1898 67.9475 57.2597C67.7756 57.3297 67.6384 57.4651 67.5663 57.6362C67.4942 57.8073 67.493 58 67.5629 58.172C67.6329 58.3439 67.7683 58.4811 67.9394 58.5532L69.0069 59.004L67.413 59.9238C67.2936 59.9941 67.1974 60.0979 67.1363 60.2223C67.0752 60.3467 67.0519 60.4863 67.0693 60.6238C67.0938 60.7114 67.123 60.7976 67.1568 60.8821L71.3568 68.1509L68.33 69.8988ZM71.9 66.2H71.8489L69.4227 62H72.6V65.5C72.6 65.6857 72.5262 65.8637 72.395 65.995C72.2637 66.1263 72.0857 66.2 71.9 66.2Z" fill="black"/>
<path d="M53.0003 64.7994C53.3869 64.7994 53.7003 64.486 53.7003 64.0994C53.7003 63.7128 53.3869 63.3994 53.0003 63.3994C52.6137 63.3994 52.3003 63.7128 52.3003 64.0994C52.3003 64.486 52.6137 64.7994 53.0003 64.7994Z" fill="black"/>
<path d="M61.8053 40.0788H43.5934L42.8668 37.9718C42.813 37.8382 42.7222 37.7229 42.605 37.6393C42.4877 37.5557 42.3491 37.5073 42.2053 37.5H40.1424C39.9567 37.5 39.7787 37.5737 39.6474 37.705C39.5161 37.8363 39.4424 38.0143 39.4424 38.2C39.4424 38.3857 39.5161 38.5637 39.6474 38.695C39.7787 38.8262 39.9567 38.9 40.1424 38.9H41.7062L46.7 53.39C46.7523 53.525 46.843 53.6416 46.961 53.7255C47.0789 53.8094 47.2189 53.8568 47.3636 53.8618H58.7106C58.8962 53.8618 59.0743 53.788 59.2056 53.6568C59.3368 53.5255 59.4106 53.3475 59.4106 53.1618C59.4106 52.9761 59.3368 52.7981 59.2056 52.6668C59.0743 52.5355 58.8962 52.4618 58.7106 52.4618H47.862L47.54 51.5266L58.7897 50.24C58.9203 50.2253 59.0441 50.1741 59.147 50.0922C59.2499 50.0104 59.3276 49.9013 59.3714 49.7773L62.4654 41.0091C62.5027 40.9035 62.5141 40.7905 62.4987 40.6796C62.4833 40.5687 62.4415 40.4631 62.3768 40.3717C62.3121 40.2803 62.2265 40.2058 62.127 40.1543C62.0276 40.1028 61.9172 40.076 61.8053 40.076V40.0788ZM60.8162 41.4788L60.2443 43.1H44.6343L44.0743 41.4788H60.8162ZM58.1968 48.8988L47.0738 50.17L45.118 44.5H59.748L58.1968 48.8988Z" fill="black"/>
<path d="M48.6522 57.8005C49.3643 57.8005 49.9416 57.2232 49.9416 56.5111C49.9416 55.799 49.3643 55.2217 48.6522 55.2217C47.9401 55.2217 47.3628 55.799 47.3628 56.5111C47.3628 57.2232 47.9401 57.8005 48.6522 57.8005Z" fill="black"/>
<path d="M57.4212 57.8005C58.1334 57.8005 58.7106 57.2232 58.7106 56.5111C58.7106 55.799 58.1334 55.2217 57.4212 55.2217C56.7091 55.2217 56.1318 55.799 56.1318 56.5111C56.1318 57.2232 56.7091 57.8005 57.4212 57.8005Z" fill="black"/>
<path d="M65.845 57.7994C66.2316 57.7994 66.545 57.486 66.545 57.0994C66.545 56.7128 66.2316 56.3994 65.845 56.3994C65.4584 56.3994 65.145 56.7128 65.145 57.0994C65.145 57.486 65.4584 57.7994 65.845 57.7994Z" fill="black"/>
<path d="M70.5291 49.4374C70.7148 49.4374 70.8928 49.3636 71.0241 49.2323C71.1554 49.1011 71.2291 48.923 71.2291 48.7374V38.4803C71.2291 38.2946 71.1554 38.1166 71.0241 37.9853C70.8928 37.854 70.7148 37.7803 70.5291 37.7803C70.3435 37.7803 70.1654 37.854 70.0341 37.9853C69.9029 38.1166 69.8291 38.2946 69.8291 38.4803V48.7374C69.8291 48.923 69.9029 49.1011 70.0341 49.2323C70.1654 49.3636 70.3435 49.4374 70.5291 49.4374Z" fill="black"/>
<path d="M70.5291 52.2369C70.9157 52.2369 71.2291 51.9235 71.2291 51.5369C71.2291 51.1503 70.9157 50.8369 70.5291 50.8369C70.1425 50.8369 69.8291 51.1503 69.8291 51.5369C69.8291 51.9235 70.1425 52.2369 70.5291 52.2369Z" fill="black"/>
<mask id="path-9-outside-1_197_414" maskUnits="userSpaceOnUse" x="0" y="0" width="106" height="106" fill="black">
<rect fill="white" width="106" height="106"/>
<path fill-rule="evenodd" clip-rule="evenodd" d="M53 103C80.6142 103 103 80.6142 103 53C103 25.3858 80.6142 3 53 3C25.3858 3 3 25.3858 3 53C3 80.6142 25.3858 103 53 103ZM53 89C72.8822 89 89 72.8822 89 53C89 33.1177 72.8822 17 53 17C33.1177 17 17 33.1177 17 53C17 72.8822 33.1177 89 53 89Z"/>
</mask>
<path fill-rule="evenodd" clip-rule="evenodd" d="M53 103C80.6142 103 103 80.6142 103 53C103 25.3858 80.6142 3 53 3C25.3858 3 3 25.3858 3 53C3 80.6142 25.3858 103 53 103ZM53 89C72.8822 89 89 72.8822 89 53C89 33.1177 72.8822 17 53 17C33.1177 17 17 33.1177 17 53C17 72.8822 33.1177 89 53 89Z" fill="#E82A4C"/>
<path d="M100 53C100 78.9574 78.9574 100 53 100V106C82.2711 106 106 82.2711 106 53H100ZM53 6C78.9574 6 100 27.0426 100 53H106C106 23.7289 82.2711 0 53 0V6ZM6 53C6 27.0426 27.0426 6 53 6V0C23.7289 0 0 23.7289 0 53H6ZM53 100C27.0426 100 6 78.9574 6 53H0C0 82.2711 23.7289 106 53 106V100ZM86 53C86 71.2254 71.2254 86 53 86V92C74.5391 92 92 74.5391 92 53H86ZM53 20C71.2254 20 86 34.7746 86 53H92C92 31.4609 74.5391 14 53 14V20ZM20 53C20 34.7746 34.7746 20 53 20V14C31.4609 14 14 31.4609 14 53H20ZM53 86C34.7746 86 20 71.2254 20 53H14C14 74.5391 31.4609 92 53 92V86Z" fill="#1E1E1E" mask="url(#path-9-outside-1_197_414)"/>
</svg>
