<svg width="106" height="106" viewBox="0 0 106 106" fill="none" xmlns="http://www.w3.org/2000/svg">
<mask id="path-1-outside-1_197_420" maskUnits="userSpaceOnUse" x="0" y="0" width="106" height="106" fill="black">
<rect fill="white" width="106" height="106"/>
<path fill-rule="evenodd" clip-rule="evenodd" d="M53 103C80.6142 103 103 80.6142 103 53C103 25.3858 80.6142 3 53 3C25.3858 3 3 25.3858 3 53C3 80.6142 25.3858 103 53 103ZM53 89C72.8822 89 89 72.8822 89 53C89 33.1177 72.8822 17 53 17C33.1177 17 17 33.1177 17 53C17 72.8822 33.1177 89 53 89Z"/>
</mask>
<path fill-rule="evenodd" clip-rule="evenodd" d="M53 103C80.6142 103 103 80.6142 103 53C103 25.3858 80.6142 3 53 3C25.3858 3 3 25.3858 3 53C3 80.6142 25.3858 103 53 103ZM53 89C72.8822 89 89 72.8822 89 53C89 33.1177 72.8822 17 53 17C33.1177 17 17 33.1177 17 53C17 72.8822 33.1177 89 53 89Z" fill="#E82A4C"/>
<path d="M100 53C100 78.9574 78.9574 100 53 100V106C82.2711 106 106 82.2711 106 53H100ZM53 6C78.9574 6 100 27.0426 100 53H106C106 23.7289 82.2711 0 53 0V6ZM6 53C6 27.0426 27.0426 6 53 6V0C23.7289 0 0 23.7289 0 53H6ZM53 100C27.0426 100 6 78.9574 6 53H0C0 82.2711 23.7289 106 53 106V100ZM86 53C86 71.2254 71.2254 86 53 86V92C74.5391 92 92 74.5391 92 53H86ZM53 20C71.2254 20 86 34.7746 86 53H92C92 31.4609 74.5391 14 53 14V20ZM20 53C20 34.7746 34.7746 20 53 20V14C31.4609 14 14 31.4609 14 53H20ZM53 86C34.7746 86 20 71.2254 20 53H14C14 74.5391 31.4609 92 53 92V86Z" fill="#1E1E1E" mask="url(#path-1-outside-1_197_420)"/>
<path d="M70.461 42.4639V66.556C70.461 67.6639 70.4477 68.7761 70.461 69.884V69.9285L72.6856 67.7039H34.8322C34.3206 67.7039 33.8089 67.6995 33.2972 67.7039H33.2305L35.4551 69.9285V45.8363C35.4551 44.7285 35.4684 43.6162 35.4551 42.5084V42.4639L33.2305 44.6884H71.0839C71.5956 44.6884 72.1072 44.6929 72.6189 44.6884H72.6856C73.2551 44.6884 73.8557 44.4393 74.2606 44.0389C74.6477 43.6518 74.9369 43.02 74.9102 42.4639C74.8835 41.8899 74.6966 41.2937 74.2606 40.8889C73.8246 40.4884 73.2907 40.2393 72.6856 40.2393H34.8322C34.3206 40.2393 33.8089 40.2348 33.2972 40.2393H33.2305C32.0292 40.2393 31.0059 41.2581 31.0059 42.4639V66.556C31.0059 67.6639 30.9926 68.7761 31.0059 69.884V69.9285C31.0059 71.1298 32.0248 72.1531 33.2305 72.1531H71.0839C71.5956 72.1531 72.1072 72.1575 72.6189 72.1531H72.6856C73.8869 72.1531 74.9102 71.1342 74.9102 69.9285V45.8363C74.9102 44.7285 74.9235 43.6162 74.9102 42.5084V42.4639C74.9102 41.8944 74.661 41.2937 74.2606 40.8889C73.8735 40.5018 73.2417 40.2126 72.6856 40.2393C72.1117 40.266 71.5155 40.4528 71.1106 40.8889C70.7146 41.3293 70.461 41.8632 70.461 42.4639Z" fill="black"/>
<path d="M72.6857 40.2442H34.8323C34.3207 40.2442 33.809 40.2397 33.2974 40.2442H33.2306C33.7556 41.5122 34.2806 42.7757 34.8056 44.0437L37.7421 40.9204C39.3037 39.2609 40.8654 37.6058 42.4226 35.9463C42.7785 35.5681 43.1389 35.1855 43.4948 34.8073C42.9698 35.0253 42.4448 35.2433 41.9198 35.4569H61.2915C62.1813 35.4569 63.0711 35.4702 63.9609 35.4569H64.001C63.476 35.2389 62.951 35.0209 62.426 34.8073L65.3624 37.9306C66.9241 39.5901 68.4857 41.2452 70.0429 42.9048C70.3989 43.2829 70.7593 43.6656 71.1152 44.0437C71.4978 44.4531 72.134 44.6933 72.6902 44.6933C73.2374 44.6933 73.887 44.4531 74.2652 44.0437C74.6523 43.6211 74.9415 43.0649 74.9148 42.4687C74.8881 41.8681 74.679 41.3387 74.2652 40.8937C73.3798 39.955 72.4989 39.0162 71.6135 38.0774C70.1052 36.4757 68.6014 34.874 67.0932 33.2768C66.6438 32.7963 66.19 32.3202 65.7406 31.8397C65.2823 31.3503 64.7129 31.0211 63.9965 31.0077H42.5961C42.1957 31.0077 41.7107 30.9632 41.3281 31.0878C40.5629 31.337 40.1402 31.8798 39.6196 32.4315C38.2181 33.9175 36.8211 35.4035 35.4196 36.894C34.2273 38.162 33.0349 39.4255 31.8425 40.6935C31.7802 40.7603 31.7135 40.8315 31.6512 40.8982C31.0328 41.5567 30.837 42.491 31.1929 43.3274C31.5355 44.1327 32.3319 44.6933 33.2262 44.6933H71.0796C71.5912 44.6933 72.1029 44.6978 72.6146 44.6933H72.6813C73.2508 44.6933 73.8514 44.4442 74.2563 44.0437C74.6434 43.6567 74.9326 43.0249 74.9059 42.4687C74.8792 41.8948 74.6923 41.2986 74.2563 40.8937C73.8247 40.4978 73.2908 40.2442 72.6857 40.2442Z" fill="black"/>
<path d="M55.6408 42.4641V54.6637C56.7575 54.023 57.8743 53.3824 58.9866 52.7417C57.5183 51.972 56.0501 51.2023 54.5775 50.4326C54.3906 50.3347 54.2037 50.2324 54.0124 50.1345C53.6654 49.961 53.2872 49.8097 52.8868 49.8275C52.4775 49.8453 52.1304 49.9432 51.7611 50.13C51.7433 50.1389 51.7255 50.1478 51.7077 50.1612C51.6099 50.2146 51.5075 50.2635 51.4097 50.3169C50.5554 50.7663 49.7012 51.2112 48.8469 51.6605C48.1618 52.0209 47.4766 52.3813 46.787 52.7372C47.9037 53.3779 49.0205 54.0186 50.1327 54.6593V42.4597L47.9082 44.6843H57.8609C58.4304 44.6843 59.0311 44.4351 59.4359 44.0347C59.823 43.6476 60.1122 43.0158 60.0855 42.4597C60.0588 41.8857 59.8719 41.2896 59.4359 40.8847C58.9999 40.4843 58.466 40.2351 57.8609 40.2351H47.9082C46.7069 40.2351 45.6836 41.254 45.6836 42.4597V54.6593C45.6836 55.4423 46.1107 56.1853 46.787 56.5813C47.4988 56.9995 48.3175 56.955 49.0338 56.5813C50.4842 55.8205 51.9391 55.0597 53.3895 54.2989C53.5986 54.1921 53.8033 54.0809 54.0124 53.9741H51.7656C53.216 54.7349 54.6709 55.4957 56.1213 56.2565C56.3304 56.3633 56.5351 56.4745 56.7442 56.5813C57.4561 56.955 58.2791 56.9995 58.991 56.5813C59.6673 56.1853 60.0944 55.4468 60.0944 54.6593V42.4597C60.0944 41.8902 59.8453 41.2896 59.4448 40.8847C59.0578 40.4976 58.426 40.2084 57.8698 40.2351C57.2959 40.2618 56.6997 40.4487 56.2948 40.8847C55.8944 41.3296 55.6408 41.8635 55.6408 42.4641Z" fill="black"/>
<path d="M63.5963 45.1476L63.5972 45.1467L70.1392 38.5704L70.4851 38.2228L70.1442 37.8702L69.2873 36.9839L68.9326 36.617L68.573 36.9792L62.8154 42.7783L60.859 40.8218L60.5055 40.4683L60.1519 40.8218L59.2803 41.6935L58.9267 42.047L59.2803 42.4006L62.0225 45.1427L62.0224 45.1428L62.0297 45.1499C62.1179 45.2345 62.2264 45.3186 62.3483 45.384C62.4661 45.4472 62.6273 45.5095 62.8118 45.5095C63.1494 45.5095 63.4361 45.3078 63.5963 45.1476ZM55.1294 41.1852C55.1294 35.835 59.4644 31.5 64.8146 31.5C70.1648 31.5 74.4998 35.835 74.4998 41.1852C74.4998 46.5354 70.1648 50.8704 64.8146 50.8704C59.4644 50.8704 55.1294 46.5354 55.1294 41.1852Z" fill="black" stroke="#FEF4F1"/>
</svg>
