<svg width="85" height="81" viewBox="0 0 85 81" fill="none" xmlns="http://www.w3.org/2000/svg">
<path d="M42.5 12.1132C36.8805 12.1132 31.3872 13.778 26.7147 16.8972C22.0423 20.0164 18.4006 24.4498 16.2501 29.6368C14.0996 34.8238 13.5369 40.5315 14.6332 46.038C15.7295 51.5445 18.4356 56.6026 22.4092 60.5725C26.3828 64.5425 31.4454 67.2461 36.957 68.3414C42.4685 69.4367 48.1813 68.8746 53.3731 66.726C58.5648 64.5775 63.0023 60.9391 66.1243 56.2709C69.2464 51.6027 70.9127 46.1144 70.9127 40.5C70.9051 32.9737 67.9091 25.7578 62.5824 20.4359C57.2556 15.114 50.0332 12.1208 42.5 12.1132ZM61.7764 37.2364L53.9161 44.6985L55.6175 55.3903C55.6932 55.8613 55.6344 56.344 55.4478 56.783C55.2612 57.222 54.9544 57.5995 54.5627 57.8721C54.1395 58.185 53.626 58.3521 53.0995 58.348C52.6723 58.3475 52.2517 58.2425 51.8745 58.042L42.3469 52.8746L32.7002 57.8041C32.2752 58.0179 31.799 58.1094 31.325 58.0681C30.8509 58.0268 30.3978 57.8544 30.0162 57.5703C29.6347 57.2862 29.3399 56.9016 29.1649 56.4595C28.9899 56.0174 28.9415 55.5354 29.0252 55.0674L30.9988 44.4266L23.3257 36.7604C22.9879 36.4246 22.7511 36.001 22.6419 35.5376C22.5327 35.0742 22.5555 34.5895 22.7078 34.1385C22.86 33.6874 23.1357 33.2879 23.5035 32.9852C23.8713 32.6825 24.3165 32.4888 24.7888 32.4259L35.5414 31.0151L40.4584 21.3601C40.6862 20.9478 41.0181 20.6022 41.421 20.3577C41.824 20.1131 42.2839 19.9782 42.7552 19.9663C43.2313 19.9749 43.6959 20.1143 44.098 20.3691C44.5002 20.624 44.8243 20.9845 45.035 21.4111L49.6968 31.185L60.4153 32.8848C60.8851 32.9577 61.3251 33.1603 61.6858 33.4696C62.0466 33.7789 62.3136 34.1828 62.457 34.6357C62.5935 35.0898 62.6022 35.5727 62.4822 36.0315C62.3621 36.4902 62.1179 36.9071 61.7764 37.2364ZM81.5122 45.6674C83.2306 43.8826 85 42.0298 85 40.5C85 38.9702 83.2306 37.1174 81.5122 35.3326C79.6203 33.6577 78.1314 31.5775 77.1567 29.2472C76.5493 26.7138 76.5202 24.0763 77.0717 21.5301C77.3949 19.1334 77.7182 16.6686 76.8845 15.5298C76.0508 14.3909 73.5669 13.932 71.185 13.49C68.6082 13.2252 66.1217 12.3952 63.9031 11.0593C61.9682 9.37548 60.4288 7.28609 59.3945 4.93995C58.2376 2.78119 57.0466 0.554439 55.6345 0.09549C54.3585 -0.312465 52.1297 0.74142 49.986 1.7783C47.6927 3.09565 45.1365 3.89082 42.5 4.10705C39.8635 3.89082 37.3073 3.09565 35.014 1.7783C32.8703 0.74142 30.6415 -0.329463 29.3655 0.09549C27.9534 0.554439 26.7624 2.78119 25.6055 4.93995C24.5712 7.28609 23.0318 9.37548 21.0969 11.0593C18.8783 12.3952 16.3918 13.2252 13.8151 13.49C11.4331 13.932 8.94916 14.3739 8.11549 15.5298C7.28183 16.6856 7.60509 19.1334 7.92834 21.5301C8.47979 24.0763 8.45071 26.7138 7.84328 29.2472C6.86859 31.5775 5.37972 33.6577 3.48779 35.3326C1.76942 37.1174 0 38.9702 0 40.5C0 42.0298 1.76942 43.8826 3.48779 45.6674C5.37972 47.3423 6.86859 49.4225 7.84328 51.7528C8.45071 54.2862 8.47979 56.9237 7.92834 59.4699C7.60509 61.8666 7.28183 64.3313 8.11549 65.4702C8.94916 66.6091 11.4331 67.068 13.8151 67.51C16.3918 67.7748 18.8783 68.6048 21.0969 69.9407C23.0318 71.6245 24.5712 73.7139 25.6055 76.06C26.7624 78.2188 27.9534 80.4456 29.3655 80.9045C30.6415 81.3125 32.8703 80.2586 35.014 79.2217C37.3073 77.9044 39.8635 77.1092 42.5 76.893C45.1365 77.1092 47.6927 77.9044 49.986 79.2217C52.1297 80.2586 54.3585 81.3295 55.6345 80.9045C57.0466 80.4456 58.2376 78.2188 59.3945 76.06C60.4288 73.7139 61.9682 71.6245 63.9031 69.9407C66.1217 68.6048 68.6082 67.7748 71.185 67.51C73.5669 67.068 76.0508 66.6261 76.8845 65.4702C77.7182 64.3144 77.3949 61.8666 77.0717 59.4699C76.5202 56.9237 76.5493 54.2862 77.1567 51.7528C78.1314 49.4225 79.6203 47.3423 81.5122 45.6674ZM42.5 73.9863C35.871 73.9863 29.3909 72.0223 23.8791 68.3428C18.3672 64.6633 14.0713 59.4335 11.5345 53.3146C8.99769 47.1958 8.33395 40.4629 9.6272 33.9672C10.9205 27.4714 14.1126 21.5048 18.8 16.8216C23.4874 12.1385 29.4596 8.94923 35.9612 7.65715C42.4628 6.36508 49.2019 7.02822 55.3263 9.56271C61.4507 12.0972 66.6853 16.3892 70.3682 21.896C74.0511 27.4028 76.0168 33.877 76.0168 40.5C76.0051 49.3775 72.4701 57.8881 66.187 64.1655C59.904 70.4428 51.3856 73.9746 42.5 73.9863ZM47.5871 36.0125L54.5116 37.1004L49.4245 41.9278C49.1253 42.2161 48.8997 42.5718 48.7664 42.9652C48.6332 43.3585 48.5964 43.7781 48.6589 44.1886L49.7648 51.0898L43.6059 47.7582C43.2287 47.5578 42.8081 47.4527 42.3809 47.4522C41.9793 47.4511 41.583 47.5443 41.224 47.7242L34.98 50.9028L36.256 44.0186C36.3291 43.6121 36.3022 43.194 36.1777 42.8002C36.0532 42.4064 35.8349 42.0487 35.5414 41.7579L30.5905 36.8114L37.532 35.8935C37.9425 35.8374 38.3333 35.6829 38.6711 35.4431C39.0088 35.2034 39.2835 34.8855 39.4716 34.5167L42.6531 28.2784L45.6815 34.6017C45.8619 34.9728 46.1293 35.295 46.4611 35.5406C46.7929 35.7863 47.1792 35.9482 47.5871 36.0125Z" fill="#FFFFFA"/>
</svg>
