<svg width="262" height="83" viewBox="0 0 262 83" fill="none" xmlns="http://www.w3.org/2000/svg">
<path d="M23.7377 39.6201C22.4363 39.6201 21.3769 40.6916 21.3769 42.0076C21.3769 43.0226 22.0071 43.8921 22.8916 44.2371C23.1546 44.34 23.4399 44.3964 23.7377 44.3964H26.0984V42.0076C26.0984 40.6916 25.039 39.6201 23.7377 39.6201ZM25.3814 43.67H23.7377C23.5305 43.67 23.3308 43.6311 23.1484 43.5596C22.5319 43.32 22.094 42.714 22.094 42.0076C22.094 41.0918 22.8308 40.3453 23.7377 40.3453C24.6445 40.3453 25.3814 41.0918 25.3814 42.0076V43.67Z" fill="#FFFFFA"/>
<path d="M33.4449 54.9365H32.8072V55.6516H33.4449V54.9365Z" fill="#FFFFFA"/>
<path d="M33.4449 56.0859V57.5124H31.5989V56.8688H32.8072V56.0859H33.4449Z" fill="#FFFFFA"/>
<path d="M20.2282 50.0322H19.5905V53.0546H20.2282V50.0322Z" fill="#FFFFFA"/>
<path d="M20.2282 48.5439H19.5905V49.6041H20.2282V48.5439Z" fill="#FFFFFA"/>
<path d="M26.9531 42.0291V44.4179H29.3139C29.6116 44.4179 29.8982 44.3614 30.1599 44.2586C31.0444 43.9135 31.6746 43.0441 31.6746 42.0291C31.6746 40.713 30.6152 39.6416 29.3139 39.6416C28.0125 39.6416 26.9531 40.713 26.9531 42.0291ZM27.6702 42.0291C27.6702 41.1133 28.4083 40.3668 29.3139 40.3668C30.2207 40.3668 30.9576 41.1133 30.9576 42.0291C30.9576 42.7355 30.5197 43.3414 29.9031 43.5811C29.7208 43.6526 29.5223 43.6915 29.3139 43.6915H27.6702V42.0291Z" fill="#FFFFFA"/>
<path d="M19.5918 48.543V49.6056H20.2294V48.543H19.5918ZM19.5918 50.0334V53.0533H20.2294V50.0334H19.5918ZM19.5918 50.0334V53.0533H20.2294V50.0334H19.5918ZM19.5918 48.543V49.6056H20.2294V48.543H19.5918ZM19.5918 48.543V49.6056H20.2294V48.543H19.5918ZM19.5918 50.0334V53.0533H20.2294V50.0334H19.5918ZM32.8085 54.9377V55.6516H33.4436V54.9377H32.8085ZM32.8085 56.0869V56.8673H31.6002V57.5122H33.4424V56.0869H32.8072H32.8085ZM32.8085 56.0869V56.8673H31.6002V57.5122H33.4424V56.0869H32.8072H32.8085ZM32.8085 54.9377V55.6516H33.4436V54.9377H32.8085ZM19.5918 50.0334V53.0533H20.2294V50.0334H19.5918ZM19.5918 48.543V49.6056H20.2294V48.543H19.5918ZM19.5918 48.543V49.6056H20.2294V48.543H19.5918ZM19.5918 50.0334V53.0533H20.2294V50.0334H19.5918ZM32.8085 54.9377V55.6516H33.4436V54.9377H32.8085ZM32.8085 56.0869V56.8673H31.6002V57.5122H33.4424V56.0869H32.8072H32.8085ZM32.8085 56.8673H31.6002V57.5122H33.4424V56.0869H32.8072V56.8673H32.8085ZM32.8085 54.9377V55.6516H33.4436V54.9377H32.8085ZM19.5918 53.0533H20.2294V50.0334H19.5918V53.0533ZM19.5918 48.543V49.6056H20.2294V48.543H19.5918ZM32.8085 56.8673H31.6002V57.5122H33.4424V56.0869H32.8072V56.8673H32.8085ZM32.8085 54.9377V55.6516H33.4436V54.9377H32.8085ZM19.5918 53.0533H20.2294V50.0334H19.5918V53.0533ZM19.5918 49.6056H20.2294V48.543H19.5918V49.6056ZM19.5918 48.543V49.6056H20.2294V48.543H19.5918ZM19.5918 50.0334V53.0533H20.2294V50.0334H19.5918ZM32.8085 54.9377V55.6516H33.4436V54.9377H32.8085ZM32.8085 56.0869V56.8673H31.6002V57.5122H33.4424V56.0869H32.8072H32.8085ZM32.8085 56.0869V56.8673H31.6002V57.5122H33.4424V56.0869H32.8072H32.8085ZM32.8085 54.9377V55.6516H33.4436V54.9377H32.8085ZM19.5918 50.0334V53.0533H20.2294V50.0334H19.5918ZM19.5918 48.543V49.6056H20.2294V48.543H19.5918ZM19.5918 48.543V49.6056H20.2294V48.543H19.5918ZM19.5918 50.0334V53.0533H20.2294V50.0334H19.5918ZM19.5918 50.0334V53.0533H20.2294V50.0334H19.5918ZM19.5918 48.543V49.6056H20.2294V48.543H19.5918ZM19.5918 48.543V49.6056H20.2294V48.543H19.5918ZM19.5918 50.0334V53.0533H20.2294V50.0334H19.5918ZM19.5918 50.0334V53.0533H20.2294V50.0334H19.5918ZM19.5918 48.543V49.6056H20.2294V48.543H19.5918Z" fill="#FFFFFA"/>
<path d="M35.0774 28.2939C35.4223 28.3805 35.7733 28.4458 36.1393 28.4872C36.5015 28.5323 36.8998 28.5524 37.3265 28.5524C38.7395 28.5524 40.0023 28.2174 41.1176 27.5449C42.2303 26.875 43.0975 25.9541 43.7177 24.7835C44.3392 23.613 44.6494 22.2957 44.6494 20.8215C44.6494 18.6573 44.039 16.739 42.8208 15.0716C41.5989 13.4042 39.9167 12.0932 37.7768 11.1409C35.6332 10.1887 33.1732 9.71191 30.3882 9.71191C27.3067 9.71191 24.5974 10.2539 22.2627 11.3379C19.928 12.4181 18.1193 13.9362 16.8328 15.8833C15.5501 17.833 14.9075 20.1289 14.9075 22.7724C14.9075 25.1951 15.4298 27.363 16.4805 29.2675C17.5288 31.1733 18.8661 32.8946 20.4937 34.434C21.8111 35.6761 23.2005 36.8567 24.6569 37.972C24.6743 37.8754 24.7078 37.7826 24.7624 37.7098C24.7797 37.686 24.7996 37.6609 24.8244 37.6408C24.7561 37.5505 24.6978 37.4514 24.6569 37.3372C24.5614 37.085 24.5614 36.8303 24.6606 36.6509C24.6743 36.6195 24.6954 36.5957 24.7115 36.5719C24.6358 36.4928 24.5651 36.3987 24.5105 36.2921C24.3877 36.0537 24.3567 35.799 24.4324 35.6058C24.4423 35.5782 24.4559 35.5506 24.4733 35.5268C24.3877 35.4578 24.3096 35.3712 24.2376 35.2708C24.0875 35.0538 24.0292 34.8079 24.0776 34.6084C23.8183 34.5256 23.5925 34.3286 23.4908 34.0526L23.4362 33.9071C23.2824 33.7891 23.1596 33.6311 23.0814 33.4416C22.8457 32.862 23.1186 32.1958 23.6918 31.9574C24.2649 31.719 24.9236 31.9951 25.1593 32.5747C25.2648 32.8331 25.2685 33.1091 25.1903 33.3576L25.2251 33.5269C25.297 33.8519 25.1879 34.1831 24.9658 34.4001C25.0613 34.4629 25.1531 34.5419 25.235 34.6385C25.2586 34.6699 25.2797 34.6975 25.3032 34.7288C25.4533 34.9497 25.5154 35.1981 25.4633 35.3988C25.4459 35.4615 25.4186 35.5167 25.3851 35.5607C25.4198 35.5958 25.4533 35.6297 25.4881 35.6711C25.5426 35.7363 25.591 35.8053 25.632 35.8856C25.7585 36.124 25.7858 36.3787 25.7101 36.5694C25.6866 36.6283 25.6555 36.6798 25.6146 36.7249L25.6183 36.7287C25.7002 36.8253 25.7684 36.9432 25.8193 37.0737C25.9111 37.3259 25.9111 37.5843 25.8118 37.7637C25.7808 37.819 25.7436 37.8679 25.699 37.9018C25.7672 38.0122 25.8255 38.1401 25.859 38.2781C25.9098 38.4851 25.8962 38.6922 25.828 38.8515C26.2609 39.1689 26.6914 39.4826 27.1107 39.7975C27.2844 39.9292 27.4556 40.0597 27.6292 40.1877C28.0696 39.7699 28.6638 39.5114 29.3151 39.5114C30.6797 39.5114 31.7887 40.633 31.7887 42.0106C31.7887 43.3882 30.6797 44.5123 29.3151 44.5123H23.7352C21.9984 44.5336 20.2542 44.5637 18.5038 44.6026C18.3637 44.6064 18.2074 44.6102 18.0672 44.6127C16.7869 44.6716 15.6506 44.9953 14.6483 45.5787C13.5355 46.2274 12.6684 47.1382 12.0481 48.305C11.4266 49.4755 11.1165 50.818 11.1165 52.3323C11.1165 54.6307 11.7677 56.667 13.0753 58.441C14.3828 60.2188 16.1915 61.6026 18.5051 62.6C20.8187 63.5937 23.471 64.0943 26.4706 64.0943C29.7667 64.0943 32.6919 63.5071 35.2374 62.3378C37.7867 61.171 39.7902 59.5664 41.2441 57.5301C42.7017 55.4977 43.4287 53.1578 43.4287 50.5131C43.4287 48.3037 42.9064 46.3227 41.8557 44.57C40.8074 42.8173 39.4466 41.2152 37.7781 39.7623C36.1058 38.3133 34.3318 36.9144 32.4475 35.5719C30.5606 34.2295 28.7854 32.8557 27.1132 31.448C25.4446 30.0404 24.0825 28.5348 23.0355 26.9302C21.9848 25.3293 21.4625 23.5101 21.4625 21.4739C21.4625 19.9031 21.8074 18.5368 22.4934 17.3738C22.3706 17.4391 22.2441 17.4742 22.1287 17.4667C22.094 17.4629 22.0642 17.4591 22.0369 17.4491C21.996 17.5557 21.9414 17.6599 21.8694 17.7565C21.7094 17.971 21.4935 18.1053 21.2926 18.1191C21.2578 18.1228 21.2305 18.1191 21.2008 18.1153C21.1772 18.2219 21.1325 18.3323 21.0742 18.4402C20.9415 18.6686 20.7505 18.8304 20.552 18.8681C20.5557 18.9095 20.5594 18.9509 20.5594 18.9923C20.5594 19.2269 20.4738 19.4615 20.3039 19.6409L20.2939 19.6547C20.2666 19.814 20.1984 19.9721 20.0992 20.1101C19.7307 20.617 19.0311 20.7312 18.5299 20.3585C18.0287 19.9897 17.9196 19.2783 18.2843 18.7715C18.4716 18.5092 18.7557 18.3537 19.0484 18.316L19.0968 18.2809C19.3524 18.0777 19.6972 18.0363 19.9875 18.1429C20.0012 18.0287 20.0359 17.912 20.0868 17.7979C20.1041 17.7627 20.1178 17.7289 20.1376 17.6975C20.2704 17.4629 20.4689 17.3011 20.6661 17.2659C20.7306 17.2559 20.7889 17.2559 20.8472 17.2659C20.8609 17.217 20.8782 17.1731 20.9018 17.1279C20.9365 17.0489 20.98 16.9723 21.0321 16.9033C21.1921 16.6888 21.4079 16.5508 21.6089 16.5408C21.6734 16.537 21.7317 16.5445 21.79 16.5646C21.79 16.5646 21.7913 16.5621 21.7937 16.5571C21.8446 16.4391 21.9203 16.3262 22.0158 16.2259C22.2006 16.0326 22.4326 15.9222 22.6336 15.936C22.6981 15.9398 22.7564 15.9574 22.8073 15.985C22.8755 15.8708 22.9648 15.7679 23.074 15.6776C23.2824 15.5044 23.5243 15.4292 23.7228 15.4668C23.8257 15.4844 23.9101 15.5321 23.9759 15.6048C25.5426 14.231 27.5759 13.5473 30.0743 13.5473C32.5728 13.5473 34.4832 14.1959 35.9855 15.4944C37.484 16.7954 38.2346 18.5281 38.2346 20.6923C38.2346 22.0347 37.9542 23.3771 37.3985 24.7196C36.8427 26.062 36.0711 27.2526 35.0849 28.2952L35.0774 28.2939ZM28.2359 45.1534H34.3517V47.3176H28.2359V45.1534ZM19.2258 57.7861V47.9637H24.8194V57.7861H19.2258ZM28.2359 47.9637H33.8332V57.7861H28.2359V47.9637ZM25.4571 45.1534H27.597V57.7848H25.4571V45.1534ZM18.7073 45.1534H24.8194V47.3176H18.7073V45.1534ZM16.8242 23.8664C16.7832 23.2416 17.2509 22.6996 17.8687 22.6545C18.4902 22.6131 19.0261 23.0861 19.067 23.7109C19.108 24.3394 18.6403 24.8814 18.0225 24.9228C17.401 24.9642 16.8651 24.4912 16.8242 23.8664ZM23.7339 30.2988C24.1508 30.7618 24.1198 31.4794 23.662 31.9035C23.2018 32.325 22.4909 32.2936 22.0716 31.8307C21.6548 31.3652 21.6858 30.6463 22.1473 30.226C22.6051 29.802 23.3146 29.8359 23.7339 30.2988ZM20.5669 27.141C20.9564 27.5512 20.9837 28.1835 20.6487 28.6214C20.9489 28.4872 21.3075 28.4872 21.625 28.6528C22.1746 28.9463 22.3855 29.6326 22.0989 30.1884C21.8086 30.7442 21.1301 30.9575 20.5805 30.6677C20.0309 30.3779 19.8201 29.6903 20.1066 29.1358C20.1376 29.0731 20.1748 29.0179 20.2121 28.9664C19.7928 29.1559 19.2841 29.0706 18.9455 28.718C18.515 28.2663 18.5287 27.5449 18.9765 27.1096C19.4231 26.6742 20.1364 26.688 20.5669 27.141ZM18.9467 27.0582C18.3773 27.3141 17.7149 27.0544 17.4618 26.4823C17.2124 25.9064 17.468 25.2365 18.0349 24.9805C18.6018 24.7283 19.2668 24.9868 19.5161 25.5602C19.7692 26.1335 19.5124 26.806 18.9467 27.0582ZM18.4989 20.4112C19.0956 20.5869 19.438 21.2154 19.2668 21.8189C19.0931 22.4199 18.4716 22.7686 17.8749 22.5955C17.2782 22.4199 16.9358 21.7913 17.107 21.1878C17.2807 20.5844 17.9022 20.2381 18.4989 20.4112Z" fill="#FFFFFA"/>
<path d="M25.075 33.7725C25.065 33.9218 25.0129 34.0635 24.9273 34.1815C24.8914 34.2316 24.8492 34.2768 24.8008 34.3157C24.7735 34.3395 24.745 34.3596 24.714 34.3784C24.673 34.4035 24.6296 34.4236 24.585 34.4399C24.513 34.4311 24.4448 34.4399 24.3877 34.4663C24.3803 34.47 24.3728 34.4738 24.3654 34.4788C24.3232 34.4801 24.2823 34.4776 24.2413 34.47C24.2103 34.465 24.1793 34.4587 24.1483 34.4487C24.0056 34.4073 23.8766 34.3232 23.7786 34.2066C23.7687 34.1953 23.76 34.1827 23.7513 34.1714C23.9548 34.2216 24.2475 34.248 24.5651 34.125C24.7946 34.0359 24.9621 33.8979 25.075 33.7725Z" fill="#FFFFFA"/>
<path d="M25.297 35.3525C25.2871 35.3913 25.271 35.4252 25.2499 35.4528C25.07 35.3349 24.8703 35.2897 24.7016 35.3462C24.6644 35.3587 24.6309 35.375 24.5998 35.3964C24.5428 35.3525 24.487 35.2998 24.4386 35.2408C24.4187 35.217 24.4001 35.1931 24.3828 35.168C24.2599 34.9899 24.2078 34.7942 24.2475 34.6436C24.2835 34.6486 24.3195 34.6511 24.3567 34.6511C24.451 34.6511 24.5465 34.6361 24.6395 34.6034C24.704 34.5809 24.7648 34.552 24.8219 34.5156C24.9497 34.5834 25.0725 34.6913 25.1643 34.8243C25.2883 35.0037 25.3392 35.2006 25.2995 35.3499L25.297 35.3525Z" fill="#FFFFFA"/>
<path d="M25.5501 36.5028C25.5352 36.5404 25.5154 36.5718 25.4906 36.5969C25.3256 36.4576 25.1333 36.3886 24.9584 36.4225C24.9199 36.43 24.8852 36.4426 24.8517 36.4601C24.7797 36.3899 24.714 36.3046 24.6644 36.208C24.5626 36.0148 24.5366 35.8128 24.5937 35.6697C24.5999 35.6522 24.6085 35.6371 24.6172 35.6221C24.8269 35.7413 25.0527 35.7714 25.2301 35.6861C25.2375 35.6823 25.2449 35.6785 25.2511 35.6735C25.3392 35.7513 25.4199 35.8504 25.4794 35.9646C25.5799 36.1578 25.6072 36.3585 25.5501 36.5016V36.5028Z" fill="#FFFFFA"/>
<path d="M25.6617 37.6757C25.6419 37.7108 25.6196 37.7397 25.591 37.7623C25.4447 37.6029 25.2623 37.5101 25.0837 37.5239C25.0452 37.5264 25.008 37.5352 24.9732 37.549C24.91 37.47 24.8566 37.3771 24.8182 37.2742C24.7413 37.0697 24.7388 36.8665 24.8132 36.7322C24.8231 36.7147 24.8331 36.6996 24.8442 36.6846C24.9857 36.7912 25.1432 36.8514 25.2883 36.8514C25.3417 36.8514 25.3938 36.8427 25.4422 36.8263C25.4509 36.8238 25.4583 36.8213 25.4657 36.8163C25.5439 36.9041 25.6121 37.0133 25.6568 37.1337C25.7337 37.3382 25.7349 37.5415 25.6617 37.6757Z" fill="#FFFFFA"/>
<path d="M25.6878 38.7428C25.395 38.5295 25.1047 38.3125 24.8169 38.0942C24.8219 37.9838 24.8517 37.8859 24.9038 37.8132C24.9149 37.7969 24.9273 37.7831 24.9397 37.7705C25.0849 37.9098 25.2586 37.9938 25.4235 37.9938C25.4558 37.9938 25.4868 37.9913 25.5166 37.985C25.5253 37.9838 25.534 37.9813 25.5414 37.9788C25.6084 38.0754 25.6617 38.1921 25.6915 38.3163C25.73 38.4731 25.7275 38.6249 25.6865 38.7428H25.6878Z" fill="#FFFFFA"/>
<path d="M21.0333 18.0539C21.0197 18.1254 20.9949 18.1982 20.9638 18.2684C20.9514 18.296 20.9378 18.3236 20.9229 18.35C20.8162 18.5394 20.6624 18.6687 20.5123 18.6975C20.4713 18.5733 20.4044 18.4554 20.3088 18.3563C20.2617 18.3061 20.2084 18.2634 20.1525 18.227C20.1587 18.0815 20.2021 17.9234 20.2828 17.7829C20.3907 17.5935 20.5445 17.463 20.6946 17.4354C20.7343 17.4291 20.7716 17.4291 20.8051 17.4354C20.7753 17.6512 20.8199 17.8519 20.9427 17.9824C20.97 18.0112 20.9998 18.0351 21.0308 18.0539H21.0333Z" fill="#FFFFFA"/>
<path d="M21.8769 17.3695C21.8434 17.4649 21.795 17.5615 21.7305 17.6481C21.6002 17.8237 21.4315 17.9329 21.2789 17.9416C21.2603 17.9429 21.243 17.9416 21.2256 17.9404C21.2442 17.6983 21.1747 17.4787 21.0221 17.352C21.0159 17.347 21.0085 17.3407 21.0023 17.3357C21.0345 17.2215 21.0879 17.1061 21.1648 17.0032C21.2951 16.8288 21.4638 16.7197 21.6151 16.7096C21.6561 16.7071 21.692 16.7121 21.7255 16.7234C21.6697 16.9342 21.6895 17.1399 21.7962 17.2842C21.8198 17.3168 21.8459 17.3444 21.8756 17.367L21.8769 17.3695Z" fill="#FFFFFA"/>
<path d="M22.7974 16.7705C22.7539 16.8596 22.6932 16.9461 22.6187 17.0227C22.4686 17.177 22.2887 17.2623 22.1362 17.2523C22.1163 17.251 22.0977 17.2485 22.0803 17.2447C22.0927 17.1833 22.0989 17.123 22.0989 17.0653C22.0989 16.9022 22.0506 16.7554 21.9513 16.6526C21.9451 16.6463 21.9389 16.64 21.9327 16.635C21.9786 16.5284 22.0468 16.4242 22.1349 16.3339C22.285 16.1808 22.4661 16.0943 22.6187 16.1043C22.6584 16.1068 22.6944 16.1156 22.7254 16.1306C22.646 16.3276 22.6411 16.5271 22.7291 16.6802C22.7477 16.714 22.7713 16.7442 22.7974 16.7692V16.7705Z" fill="#FFFFFA"/>
<path d="M23.8394 15.7187C23.8394 15.7187 23.8382 15.72 23.8369 15.7212C23.5479 15.9859 23.2849 16.267 23.0492 16.5631C23.0541 16.5242 23.0579 16.4878 23.0579 16.4514C23.0579 16.3222 23.0256 16.2042 22.9574 16.1114C22.9524 16.1051 22.9475 16.0976 22.9413 16.0913C22.9996 15.9884 23.0802 15.8906 23.1794 15.809C23.3469 15.671 23.538 15.6058 23.6868 15.6346C23.7501 15.6472 23.8022 15.6748 23.8406 15.7187H23.8394Z" fill="#FFFFFA"/>
<path d="M20.3175 19.311C20.3138 19.3198 20.3101 19.3273 20.3064 19.3348C20.2791 19.0212 20.1215 18.7213 19.8511 18.5206C19.7233 18.4265 19.5831 18.3638 19.4392 18.3311C19.4392 18.3311 19.438 18.3311 19.4367 18.3311C19.4169 18.3236 19.397 18.3173 19.3772 18.3111C19.4678 18.2747 19.5633 18.2559 19.66 18.2559C19.7704 18.2559 19.8809 18.2797 19.9813 18.3286C20.0136 18.3437 20.0446 18.3612 20.0744 18.3813C20.1141 18.4077 20.1501 18.439 20.1835 18.4742C20.2071 18.5444 20.2431 18.6034 20.2927 18.6448C20.2989 18.6498 20.3064 18.6561 20.3126 18.6611C20.3312 18.6987 20.3461 18.7376 20.3585 18.7765C20.3671 18.8079 20.3746 18.8393 20.3783 18.8719C20.4019 19.0199 20.382 19.1742 20.3188 19.3122L20.3175 19.311Z" fill="#FFFFFA"/>
<path d="M148.621 61.1274C148.147 61.1249 147.704 61.0948 147.704 61.0948C147.335 61.0697 147.008 61.0484 146.656 60.9819C146.604 60.9718 146.447 60.9405 146.133 60.8778C146.073 60.8652 145.983 60.8476 145.863 60.8213C145.512 60.7435 145.257 60.6733 145.019 60.608C144.763 60.5378 144.379 60.4311 143.882 60.2605C143.593 60.1614 143.355 60.0786 143.038 59.9393C142.696 59.79 142.45 59.6583 142.378 59.6181C142.247 59.5479 142.123 59.4726 141.875 59.3245C141.622 59.1727 141.491 59.0937 141.321 58.977C141.208 58.9005 141.122 58.8365 140.951 58.7098C140.74 58.553 140.632 58.4727 140.502 58.3623C140.415 58.2882 140.338 58.2142 140.184 58.0687C139.996 57.8893 139.854 57.7525 139.682 57.5606C139.665 57.5405 139.609 57.4765 139.497 57.3473C139.253 57.0637 139.204 57.0035 139.179 56.9734C139.072 56.8379 139.012 56.7626 138.941 56.6522C138.828 56.4753 138.822 56.4164 138.703 56.1981C138.579 55.9697 138.546 55.9584 138.439 55.7702C138.343 55.6021 138.286 55.4516 138.175 55.1555C138.085 54.9171 137.984 54.6474 137.884 54.2735C137.856 54.1668 137.786 53.9009 137.726 53.5521C137.683 53.3137 137.66 53.1167 137.646 52.9913C137.64 52.9323 137.629 52.8232 137.62 52.6977C137.616 52.6337 137.597 52.3339 137.62 51.9236C137.642 51.5297 137.692 51.2348 137.726 51.0416C137.764 50.8208 137.793 50.6527 137.857 50.4268C137.924 50.196 137.989 50.0404 138.095 49.7857C138.194 49.5486 138.306 49.2826 138.491 48.9577C138.558 48.8398 138.653 48.6817 138.781 48.5035C138.876 48.3731 138.923 48.3066 138.992 48.2363C139.065 48.1623 139.116 48.1259 139.203 48.023C139.261 47.954 139.259 47.9452 139.308 47.89C139.385 47.8035 139.447 47.7608 139.519 47.7031C139.64 47.6065 139.64 47.5902 139.784 47.4622C139.831 47.4208 139.999 47.274 140.233 47.1147C140.395 47.0043 140.523 46.9328 140.628 46.8738C140.913 46.717 141.143 46.6179 141.236 46.5802C141.443 46.4949 141.599 46.4447 141.844 46.3669C142.022 46.3105 142.133 46.2741 142.293 46.2339C142.391 46.2089 142.643 46.1474 142.98 46.101C143.222 46.0671 143.403 46.057 143.561 46.047C143.84 46.0307 144.158 46.0131 144.565 46.047C144.807 46.0671 144.989 46.0972 145.173 46.1273C145.34 46.1549 145.555 46.1913 145.832 46.2603C146.174 46.3469 146.442 46.441 146.598 46.5012C146.775 46.5677 146.99 46.6505 147.258 46.7948C147.475 46.9114 147.619 47.0105 147.654 47.0356C147.775 47.1197 147.858 47.1887 147.997 47.3029C148.079 47.3694 148.206 47.4748 148.367 47.6241C148.572 47.8135 148.683 47.9151 148.816 48.0782C148.925 48.2112 148.996 48.3216 149.08 48.4521C149.119 48.5123 149.224 48.6779 149.344 48.9063C149.39 48.9953 149.483 49.1747 149.583 49.4144C149.702 49.7017 149.772 49.93 149.793 50.0015C149.894 50.3378 149.94 50.5987 149.952 50.669C149.982 50.8446 149.997 50.9902 150.006 51.0692C150.014 51.1508 150.025 51.2649 150.032 51.4167C150.035 51.5008 150.04 51.6639 150.032 51.8709C150.028 51.9587 150.017 52.1657 149.978 52.4317C149.956 52.586 149.918 52.847 149.82 53.1795C149.735 53.4668 149.646 53.675 149.581 53.8206C149.499 54.01 149.414 54.2032 149.264 54.4353C149.167 54.5846 149.08 54.695 149.053 54.7289C148.967 54.8356 148.893 54.9133 148.815 54.9961C148.728 55.0877 148.686 55.1329 148.63 55.1831C148.517 55.286 148.424 55.3449 148.26 55.4503C148.119 55.5406 148.028 55.5984 147.891 55.6636C147.75 55.7301 147.629 55.7715 147.547 55.7966C147.386 55.8468 147.257 55.8681 147.203 55.8769C147.099 55.8932 147.021 55.8982 146.939 55.9032C146.808 55.912 146.669 55.9195 146.49 55.9032C146.392 55.8944 146.298 55.8857 146.172 55.8493C146.122 55.8342 145.999 55.7966 145.855 55.7163C145.748 55.6561 145.679 55.6009 145.591 55.5294C145.524 55.4754 145.429 55.3989 145.326 55.2885C145.206 55.1592 145.139 55.0526 145.036 54.8882C144.922 54.7063 144.849 54.5608 144.798 54.4604C144.735 54.335 144.686 54.217 144.587 53.9799C144.581 53.9661 144.511 53.7955 144.482 53.5797C144.474 53.5232 144.467 53.4505 144.508 53.3927C144.544 53.3426 144.599 53.3225 144.639 53.3125C144.896 53.2485 145.553 53.3024 145.96 53.2861C146.197 53.2761 146.407 53.2397 146.594 53.2058C146.763 53.1757 146.894 53.1519 147.069 53.0992C147.207 53.0578 147.392 52.9913 147.598 52.8859C147.707 52.8294 147.838 52.7617 147.993 52.645C148.173 52.5108 148.287 52.384 148.389 52.2711C148.495 52.1544 148.585 52.0528 148.679 51.8973C148.763 51.7592 148.812 51.6401 148.838 51.5761C148.864 51.5133 148.908 51.4029 148.944 51.2549C148.957 51.1972 148.98 51.0931 148.997 50.9074C149.012 50.7443 149.023 50.4946 148.997 50.186C148.987 50.0705 148.966 49.8811 148.918 49.6515C148.858 49.3692 148.785 49.1609 148.759 49.0907C148.706 48.9426 148.656 48.8335 148.627 48.7695C148.559 48.6202 148.507 48.5048 148.417 48.3693C148.384 48.3204 148.325 48.2476 148.206 48.1021C148.043 47.9038 147.962 47.8047 147.888 47.7282C147.825 47.6617 147.717 47.5538 147.57 47.4346C147.423 47.3129 147.291 47.2251 147.201 47.1674C147.01 47.0469 146.855 46.9742 146.752 46.9265C146.641 46.875 146.489 46.8048 146.277 46.7396C146.231 46.7258 146.059 46.6731 145.828 46.6329C145.676 46.6066 145.566 46.5965 145.378 46.579C145.278 46.5702 145.15 46.5589 144.983 46.5526C144.869 46.5488 144.712 46.5426 144.508 46.5526C144.264 46.5639 144.075 46.5915 143.979 46.6066C143.876 46.6229 143.702 46.6505 143.477 46.7132C143.237 46.7797 143.052 46.855 142.948 46.9001C142.762 46.9817 142.627 47.057 142.525 47.1134C142.363 47.205 142.247 47.2702 142.102 47.3807C142.06 47.4133 142.095 47.3882 141.759 47.6742C141.679 47.742 141.623 47.7897 141.548 47.8612C141.515 47.8925 141.441 47.9628 141.363 48.0481C141.25 48.1711 141.179 48.2714 141.073 48.422C140.927 48.6265 140.829 48.7883 140.808 48.8222C140.746 48.9251 140.637 49.1057 140.518 49.3567C140.497 49.4018 140.405 49.595 140.307 49.8648C140.27 49.9677 140.222 50.0981 140.176 50.265C140.107 50.5109 140.079 50.6966 140.044 50.9325C139.992 51.285 139.971 51.5598 139.965 51.6539C139.954 51.8094 139.925 52.2862 139.965 52.9097C139.972 53.0239 139.992 53.3137 140.044 53.6838C140.099 54.0765 140.162 54.3651 140.176 54.4316C140.205 54.5646 140.251 54.7741 140.334 55.0463C140.403 55.2696 140.463 55.4327 140.519 55.5808C140.658 55.9509 140.783 56.2181 140.81 56.2758C140.894 56.4553 140.982 56.646 141.127 56.8906C141.266 57.1265 141.393 57.3046 141.497 57.4514C141.601 57.5995 141.688 57.7124 141.735 57.7726C141.79 57.8441 141.866 57.942 141.973 58.0662C142.153 58.2769 142.302 58.4262 142.343 58.4664C142.488 58.6107 142.607 58.7148 142.66 58.76C142.796 58.8754 142.897 58.9532 143.03 59.0536C143.16 59.1527 143.328 59.2781 143.559 59.4274C143.652 59.4876 143.778 59.5705 143.954 59.6683C144.044 59.7172 144.19 59.7963 144.377 59.8816C144.603 59.9857 144.776 60.0472 144.985 60.1225C145.133 60.1752 145.351 60.253 145.645 60.3358C145.995 60.4349 146.263 60.4888 146.438 60.5227C146.624 60.5591 146.906 60.6143 147.283 60.6557C147.471 60.677 147.745 60.7009 148.075 60.7096C148.302 60.7147 148.475 60.7109 148.524 60.7096C148.89 60.6996 149.17 60.6682 149.264 60.6557C149.545 60.6218 149.744 60.5804 150.029 60.5227C150.379 60.4512 150.656 60.3809 150.822 60.3358C151.008 60.2856 151.2 60.2341 151.456 60.1488C151.87 60.0108 152.17 59.8766 152.275 59.8276C152.414 59.7649 152.585 59.6859 152.803 59.5604C152.937 59.4826 153.034 59.4199 153.226 59.2932C153.428 59.1602 153.608 59.041 153.834 58.8654C153.936 58.7863 154.014 58.7211 154.098 58.6521C154.278 58.5028 154.369 58.4275 154.468 58.3309C154.617 58.1879 154.722 58.0624 154.811 57.957C154.89 57.8654 154.887 57.8617 155.05 57.6634C155.257 57.41 155.242 57.4364 155.314 57.3423C155.433 57.1867 155.511 57.0662 155.658 56.8341C155.763 56.6685 155.815 56.5857 155.868 56.4866C155.933 56.3674 155.995 56.2382 156.107 55.9522C156.269 55.5356 156.375 55.2006 156.424 55.0438C156.511 54.764 156.558 54.6085 156.609 54.3764C156.669 54.1003 156.697 53.8808 156.714 53.7353C156.724 53.6499 156.752 53.4229 156.768 53.1205C156.778 52.9147 156.793 52.6099 156.768 52.2122C156.758 52.0591 156.743 51.8245 156.688 51.5171C156.639 51.2348 156.579 51.0253 156.53 50.8497C156.443 50.5423 156.357 50.3089 156.319 50.2085C156.296 50.1483 156.193 49.8823 156.028 49.5411C155.961 49.4043 155.896 49.2676 155.79 49.0869C155.757 49.0292 155.624 48.8034 155.421 48.5261C155.341 48.4182 155.275 48.3354 155.236 48.2852C155.11 48.1271 155.011 48.0155 154.918 47.9114C154.798 47.7759 154.706 47.678 154.522 47.4835C154.441 47.397 154.386 47.3405 154.312 47.2703C154.237 47.2 154.179 47.1498 154.101 47.0833C153.886 46.9014 153.778 46.8098 153.652 46.7094C153.568 46.6442 153.464 46.5626 153.229 46.3883C152.835 46.0984 152.627 45.9441 152.33 45.7472C152.072 45.5753 151.87 45.4523 151.696 45.3469C151.476 45.2127 151.438 45.1951 150.931 44.8928C150.652 44.7259 150.637 44.7159 150.482 44.6255C150.291 44.5139 150.104 44.4035 149.874 44.278C149.557 44.1036 149.563 44.1212 149.161 43.9041C148.991 43.8125 148.853 43.736 148.58 43.583C148.359 43.46 148.249 43.3985 148.105 43.3157C147.743 43.1075 147.753 43.1024 147.471 42.9418C147.064 42.7085 147.025 42.7085 146.706 42.514C146.665 42.4889 146.537 42.4086 146.283 42.2468C146.001 42.0686 145.86 41.9783 145.78 41.9256C145.519 41.7525 145.328 41.612 145.173 41.4978C144.854 41.2632 144.628 41.08 144.485 40.9633C144.309 40.8203 144.222 40.7438 144.142 40.6697C144.032 40.5681 143.925 40.4678 143.798 40.3222C143.695 40.203 143.696 40.188 143.56 40.0286C143.423 39.868 143.416 39.8768 143.322 39.7614C143.22 39.6359 143.154 39.5343 143.057 39.3875C143 39.301 142.93 39.1918 142.846 39.04C142.739 38.8455 142.668 38.6875 142.636 38.6122C142.521 38.35 142.456 38.1342 142.425 38.025C142.361 37.8042 142.33 37.6323 142.319 37.5709C142.291 37.409 142.278 37.2823 142.266 37.1706C142.258 37.0979 142.246 36.9762 142.24 36.8231C142.237 36.7729 142.231 36.6136 142.24 36.3426C142.252 35.9687 142.283 35.6802 142.293 35.5948C142.302 35.5146 142.333 35.2486 142.399 34.8998C142.437 34.6953 142.478 34.4833 142.557 34.2047C142.631 33.9488 142.7 33.7644 142.716 33.7242C142.809 33.4821 142.896 33.3064 142.954 33.1898C143.039 33.0216 143.127 32.8447 143.272 32.6289C143.325 32.5499 143.377 32.4784 143.483 32.3354C143.565 32.225 143.642 32.1208 143.747 31.9878C143.834 31.8799 143.928 31.762 144.065 31.614C144.205 31.4609 144.318 31.3543 144.355 31.3204C144.423 31.2564 144.472 31.215 144.566 31.1335C144.767 30.9603 144.867 30.8737 144.989 30.7859C145.058 30.7357 145.159 30.6718 145.359 30.545C145.54 30.4309 145.629 30.3732 145.702 30.3318C145.841 30.2502 146.035 30.1699 146.416 30.0106C146.964 29.7822 147.026 29.7571 147.129 29.717C147.422 29.6016 147.572 29.5426 147.709 29.5037C147.931 29.4397 148.098 29.4134 148.369 29.3707C148.441 29.3594 148.693 29.3205 149.029 29.2904C149.1 29.2842 149.244 29.2729 149.425 29.2641C149.919 29.2402 150.305 29.2578 150.429 29.2641C150.776 29.2816 151.03 29.3143 151.273 29.3444C151.533 29.377 151.704 29.3983 151.933 29.451C152.082 29.4849 152.229 29.525 152.488 29.6116C153.097 29.8136 153.162 29.8776 153.65 30.0394C154.016 30.1611 154.314 30.2352 154.495 30.2803C154.629 30.3129 154.895 30.3769 155.234 30.4409C155.79 30.545 156.068 30.5965 156.344 30.6015C156.817 30.609 157.363 30.525 157.48 30.7081C157.496 30.7332 157.506 30.7621 157.506 30.7621C157.57 30.9352 157.451 31.1209 157.427 31.1623C157.304 31.3731 157.302 31.8448 157.162 33.0593C157.105 33.5549 157.027 34.0843 156.872 35.1432C156.75 35.97 156.657 36.5471 156.634 36.6926C156.335 38.5457 156.304 38.4027 156.316 38.5093C156.319 38.5294 156.367 38.9133 156.211 39.0438C156.162 39.0839 156.105 39.0977 156.105 39.0977C156.004 39.1216 155.913 39.0701 155.867 39.0438C155.867 39.0438 155.806 39.0099 155.762 38.9635C155.589 38.7878 155.698 37.7227 155.682 37.0138C155.675 36.6876 155.64 36.3815 155.603 36.0515C155.579 35.8495 155.553 35.6137 155.497 35.3038C155.426 34.901 155.345 34.5962 155.313 34.4757C155.257 34.2712 155.156 33.9262 154.995 33.5134C154.972 33.452 154.876 33.2098 154.731 32.8987C154.687 32.8058 154.615 32.654 154.52 32.4709C154.414 32.2701 154.362 32.1685 154.282 32.043C154.161 31.8549 154.055 31.7244 153.964 31.6152C153.887 31.5224 153.769 31.3806 153.595 31.215C153.509 31.1335 153.438 31.0745 153.384 31.0281C153.318 30.9729 153.201 30.875 153.04 30.7608C152.829 30.6115 152.658 30.5162 152.617 30.4936C152.42 30.3845 152.263 30.3192 152.168 30.2803C152.055 30.2339 151.83 30.1448 151.534 30.067C151.313 30.0081 151.143 29.9792 151.032 29.9604C150.781 29.9177 150.595 29.9014 150.344 29.8801C150.106 29.86 149.968 29.855 149.895 29.8538C149.761 29.8512 149.657 29.8525 149.605 29.8538C149.317 29.8613 149.098 29.8876 148.945 29.9077C148.677 29.9416 148.457 29.983 148.311 30.0143C148.223 30.0332 147.95 30.0921 147.598 30.2013C147.453 30.2464 147.25 30.3092 146.99 30.4146C146.743 30.5149 146.557 30.5915 146.33 30.7357C146.175 30.8336 146.057 30.9264 145.96 31.003C145.788 31.1385 145.661 31.2552 145.591 31.3242C145.535 31.3781 145.478 31.4321 145.406 31.5111C145.381 31.5387 145.293 31.6353 145.168 31.8047C145.026 31.9954 144.921 32.1647 144.85 32.2852C144.792 32.3843 144.706 32.5323 144.612 32.7394C144.578 32.8134 144.503 32.9865 144.427 33.2199C144.333 33.5122 144.288 33.7481 144.268 33.861C144.238 34.0366 144.226 34.1696 144.215 34.2888C144.201 34.4406 144.185 34.6175 144.189 34.8496C144.191 35.0002 144.195 35.2034 144.242 35.4644C144.281 35.6777 144.331 35.837 144.374 35.9725C144.442 36.1883 144.509 36.3476 144.532 36.4003C144.609 36.5797 144.679 36.7089 144.743 36.8281C144.819 36.9674 144.881 37.0828 144.981 37.2284C145.042 37.3174 145.109 37.4027 145.246 37.5759C145.334 37.6875 145.395 37.7641 145.484 37.8695C145.603 38.01 145.682 38.1028 145.801 38.217C145.847 38.2609 145.903 38.3086 146.012 38.4039C146.083 38.4654 146.195 38.562 146.33 38.6712C146.473 38.7878 146.506 38.8079 146.779 39.0187C147.058 39.2332 147.021 39.2106 147.123 39.2859C147.336 39.444 147.506 39.5519 147.677 39.6598C147.737 39.6974 147.802 39.7376 148.258 40.0073C148.709 40.2733 148.712 40.2733 148.892 40.3812C149.141 40.5317 149.161 40.5468 149.42 40.7024C149.673 40.8529 149.798 40.9295 149.923 40.9959C150.161 41.1264 150.2 41.1327 150.556 41.3171C150.766 41.425 150.919 41.5091 151.059 41.5844C151.135 41.6258 151.292 41.7123 151.772 41.9846C152.199 42.228 152.153 42.2041 152.38 42.3321C152.801 42.5692 152.828 42.5768 153.145 42.7599C153.36 42.8841 153.516 42.9745 153.726 43.1075C153.886 43.2091 153.885 43.2141 154.175 43.401C154.392 43.5415 154.51 43.6181 154.677 43.7222C154.909 43.8665 154.962 43.8928 155.101 43.9894C155.197 44.0572 155.192 44.0584 155.391 44.2027C155.656 44.3959 155.653 44.3846 155.76 44.47C155.896 44.5766 155.889 44.5854 156.104 44.7635C156.241 44.8777 156.237 44.8677 156.368 44.9768C156.522 45.1048 156.634 45.2052 156.764 45.3244C156.858 45.4097 156.955 45.4975 157.082 45.6179C157.217 45.7472 157.321 45.8488 157.451 45.9918C157.496 46.042 157.543 46.0959 157.636 46.2051C157.78 46.3732 157.852 46.4573 157.926 46.5526C158.058 46.7182 158.144 46.8462 158.27 47.0331C158.356 47.1611 158.447 47.2979 158.56 47.4873C158.71 47.7395 158.81 47.939 158.904 48.1284C158.986 48.294 159.057 48.437 159.142 48.6365C159.287 48.979 159.374 49.2538 159.406 49.3579C159.519 49.728 159.575 50.0166 159.591 50.1057C159.601 50.1571 159.64 50.3742 159.671 50.6665C159.676 50.7167 159.687 50.8308 159.697 50.9877C159.731 51.5309 159.713 52.0365 159.697 52.3238C159.687 52.5007 159.676 52.699 159.643 52.9649C159.626 53.1105 159.588 53.4015 159.512 53.7666C159.445 54.0853 159.377 54.3249 159.353 54.4077C159.24 54.8004 159.126 55.089 159.089 55.1818C158.98 55.4553 158.88 55.6561 158.799 55.8229C158.694 56.0324 158.615 56.1767 158.455 56.464C158.312 56.7212 158.264 56.7965 158.217 56.8643C158.196 56.8956 158.089 57.0499 157.926 57.2381C157.827 57.3523 157.801 57.3711 157.636 57.5593C157.538 57.6697 157.546 57.6647 157.451 57.7726C157.32 57.9219 157.209 58.0486 157.056 58.2004C157.005 58.2506 156.903 58.3497 156.765 58.4676C156.626 58.5868 156.522 58.6659 156.396 58.7612C156.172 58.9293 156 59.046 155.947 59.0824C155.888 59.1213 155.87 59.1338 155.656 59.2693C155.18 59.573 155.203 59.5604 155.154 59.5905C154.885 59.7524 154.665 59.8552 154.546 59.9117C154.335 60.0108 154.183 60.0673 153.886 60.1789C153.681 60.2555 153.376 60.3696 152.962 60.5001C152.741 60.5691 152.431 60.6657 152.01 60.7673C151.678 60.8476 151.406 60.8991 151.245 60.9279C151.112 60.9518 151.007 60.9681 150.921 60.9806C150.921 60.9806 150.721 61.0107 150.532 61.0346C150.259 61.0697 149.596 61.1124 149.194 61.1212" fill="#FFFFFA"/>
<path d="M63.1197 36.0052C65.2137 36.0052 67.3078 36.0052 69.4006 36.0052C69.4043 36.1294 69.408 36.2536 69.413 36.3765L69.3609 36.5886L69.0718 36.6676L68.6513 36.7466L68.3883 36.8533L68.1526 37.039L67.9429 37.2773L67.7593 37.7026L67.6812 38.0477L67.6291 38.5784V58.5191L67.6812 59.0498L67.7866 59.5279L67.9963 59.9532L68.2059 60.1652L68.4689 60.3245L68.6786 60.4312L69.3609 60.5905L69.3869 60.6169V60.9092C69.377 60.9807 69.3658 61.0522 69.3559 61.1237C69.1822 61.1137 69.0085 61.1049 68.8349 61.0949C67.2768 61.1124 65.7199 61.13 64.1618 61.1476H63.1383V61.0146L63.0862 60.8816V60.6695L63.1383 60.5629L63.874 60.3772L64.137 60.2442L64.4 60.0059L64.5575 59.7675L64.715 59.3961L64.7932 58.9445L64.8193 58.5191V38.818L64.7672 38.074L64.689 37.7026L64.5315 37.3049L64.3739 37.0929L64.1642 36.9072L63.9546 36.8006L63.5874 36.6939L63.1408 36.6149L63.1148 36.4819C63.1172 36.3226 63.1197 36.1632 63.1222 36.0039L63.1197 36.0052Z" fill="#FFFFFA"/>
<path d="M83.6022 35.1396L83.7337 35.166L83.7598 35.777V41.0338L83.7077 41.0865H83.3926L83.3405 40.9008L83.235 40.1844L83.0775 39.4944L82.9199 38.9637L82.7103 38.4594L82.4473 37.955L82.2116 37.6363L81.9225 37.3177L81.6074 37.0253L81.1869 36.787L80.8197 36.6013L80.058 36.4683L79.795 36.4419L79.1648 36.4156H75.0425V45.2844L76.907 45.2581L77.5372 45.2054L77.9305 45.0987L78.351 44.8867L78.6401 44.6483L78.8497 44.3824L78.9812 44.1703L79.1388 43.745L79.2442 43.267L79.3757 42.1517H79.6647L79.7168 42.2044V48.9215L79.4018 48.9479L79.3497 48.8413L79.2715 48.0446L79.14 47.3545L79.0085 47.0095L78.851 46.7172L78.6413 46.4512L78.4577 46.2655L78.1166 46.0535L77.7494 45.9205L77.3822 45.8678L77.041 45.8415L75.5189 45.8151L75.0462 45.7888L75.0723 58.8794L75.1244 59.3574L75.2298 59.6761L75.4395 59.9947L75.6752 60.2607L76.0424 60.4727L76.489 60.6057L76.7247 60.6584L76.8301 60.7111V60.9495L76.6465 61.0022L76.6205 61.0549H75.071L74.4148 61.0285L73.6792 61.0549L74.7026 61.0812V61.1076L72.8654 61.1339H72.2352L72.1037 61.1076L71.868 61.0812L70.687 61.0549L70.5294 60.9482L70.5034 60.7099L70.687 60.6308L71.2378 60.4978L71.5529 60.3385L71.8159 60.1001L71.9734 59.9144L72.157 59.5431L72.2091 59.3574L72.2352 59.1454L72.2612 58.641V38.9399L72.2352 37.9575L72.1831 37.4532L72.0776 37.1872L71.9201 36.9212L71.7104 36.6552L71.4474 36.4695L71.2638 36.3905L70.5815 36.2575L70.5294 36.2312V36.0191L70.5815 35.8598L71.5008 35.8334H77.7494L82.3964 35.7808L82.8951 35.7017L83.1841 35.5424L83.3156 35.4094L83.3938 35.2501L83.5253 35.171L83.6034 35.1447L83.6022 35.1396Z" fill="#FFFFFA"/>
<path d="M129.302 43.5436H129.187L128.96 43.6603L128.522 43.871L128.237 43.9488L127.801 44.0266L127.44 44.0454L126.871 44.0266L126.112 43.93L125.542 43.8133L124.896 43.6414L124.231 43.4307L123.566 43.2011L122.884 42.9501L122.029 42.6428L121.099 42.3354L120.548 42.1635L119.768 41.9527L118.894 41.7595L117.812 41.5876L116.978 41.491L116.351 41.4521L115.705 41.4333H115.116L114.451 41.4521L114.034 41.491L113.9 41.4722L113.881 41.4158L113.693 41.1648L113.484 40.8575L113.198 40.4359L113.009 40.1674L112.782 39.8412L112.517 39.4561L112.344 39.2064L112.117 38.8802L111.852 38.5151L111.586 38.1324L111.378 37.8251L111.148 37.4989L110.883 37.1137L110.731 36.8841L110.201 36.1539L110.009 35.8854H111.055L114.149 35.9043L115.041 35.9431L115.745 36.0009L116.561 36.115L117.187 36.2317L117.946 36.4036L118.668 36.6169L119.085 36.7699L119.712 37.0384L120.15 37.268L120.605 37.539L120.89 37.7297L121.194 37.9593L121.405 38.1337L121.632 38.3445L121.783 38.4775L121.994 38.7096L122.203 38.978L122.373 39.2465L122.488 39.4372L122.639 39.7446L122.735 39.8224L122.923 39.8801L123 39.8613L122.982 39.6681L122.943 39.5351L122.812 38.978L122.623 38.3633L122.337 37.3445L122.071 36.2894L121.844 35.3874L121.767 35.3096H109.101L106.747 35.3284V35.3861L106.842 35.6747L106.958 35.8854L107.697 36.923L107.85 37.1526L108.097 37.4989L108.305 37.8062L108.458 38.0358L108.723 38.4009L108.912 38.6694L109.064 38.8802L109.291 39.2064L109.577 39.6279L109.842 40.0131L110.05 40.3205L110.277 40.6467L110.526 40.993L110.791 41.358L111.151 41.895L111.228 42.028L111.039 42.1058L110.508 42.299L109.9 42.5675L109.386 42.836L108.989 43.0656L108.476 43.4118L108.115 43.6803L107.868 43.8911L107.677 44.0454L107.108 44.6213L106.881 44.871L106.654 45.1394L106.443 45.4079L106.235 45.7153L106.046 46.0039L105.835 46.369L105.608 46.7905L105.4 47.2334L105.191 47.7315L104.962 48.4428L104.83 48.9798L104.715 49.5757L104.622 50.2482L104.565 50.9207V51.898L104.583 52.2242L104.658 52.9544L104.753 53.588L104.926 54.3746L105.057 54.8351L105.21 55.2968L105.418 55.8337L105.627 56.2766L105.779 56.584L105.949 56.8914L106.122 57.1799L106.33 57.5049L106.596 57.8901L106.823 58.1786L107.05 58.4471L107.184 58.6014L107.545 58.9665L107.848 59.2551L108.114 59.4847L108.418 59.7343L108.626 59.8698L108.892 60.0229L109.1 60.1772L109.366 60.3679L109.652 60.521L110.049 60.7142L110.6 60.9438L111.226 61.1545L111.911 61.3289L112.596 61.4431L113.24 61.5008H114.436L115.178 61.4431L115.767 61.3678L116.64 61.2135L117.248 61.0805L117.799 60.9262L118.216 60.7907L118.692 60.6188L119.053 60.4658L119.488 60.2525L119.792 60.0806L120.096 59.9263L120.439 59.7732L120.743 59.5988L121.028 59.4269L121.275 59.2551L121.656 58.9866L121.883 58.8122L122.071 58.6591L122.319 58.427L122.451 58.2551L122.528 58.2162L122.623 58.3329L122.736 58.5236L122.889 58.7733L123.04 59.0807L123.097 59.3103V59.5035L123.079 59.6176L123.021 59.6954L122.87 59.8121L122.489 59.9451L122.432 60.0028L122.414 60.1195L122.452 60.1383L122.699 60.1772L123.421 60.1948H128.681L128.738 60.1772L128.756 60.0806L128.661 59.9639L128.357 59.9062L127.996 59.792L127.618 59.6377L127.218 59.4081L126.876 59.1785L126.533 58.9289L126.287 58.7156L126.078 58.5437L125.774 58.2363L125.697 58.1974V58.1585L125.509 57.9678L125.336 57.7771L125.128 57.5262L124.994 57.3543L124.767 57.0658L124.501 56.7007L124.046 56.047L123.628 55.4323L123.363 55.0496L123.116 54.7033L122.907 54.396L122.678 54.0698L122.431 53.7235L122.223 53.4161L121.957 53.0335L121.73 52.7073L121.426 52.2644L120.97 51.6107L120.723 51.2644L120.419 50.8241L120.21 50.5167L119.981 50.1905L119.715 49.8053L119.527 49.5369L119.072 48.8832L118.768 48.4428L118.538 48.1166L118.234 47.6738L117.987 47.33L117.779 47.0226L117.552 46.6964L117.305 46.3501L117.037 45.965L116.79 45.5999L116.543 45.2561L116.335 44.9487L116.088 44.6025L115.877 44.2951L115.63 43.9488L115.023 43.0656L114.776 42.7193L114.567 42.4119L114.34 42.1045L114.302 41.9904L114.871 41.9515H115.821L116.484 42.0092L116.883 42.0845L117.396 42.22L117.927 42.4107L118.383 42.6214L118.687 42.7758L119.142 43.0442L119.465 43.255L119.656 43.3905L119.883 43.5436L120.849 44.2361L121.439 44.6401L121.781 44.8509L122.085 45.0228L122.389 45.1771L122.845 45.3678L123.338 45.5221L123.776 45.6162L124.401 45.694H125.086L125.274 45.6752L125.808 45.5974L126.359 45.4832L126.832 45.3477L127.402 45.1369L127.82 44.9462L128.275 44.6953L128.675 44.4456L129.017 44.196L129.264 43.9852L129.395 43.8309V43.6979L129.302 43.5436ZM114.47 46.6161L114.774 47.059L115.021 47.4028L115.174 47.6349L115.421 47.9786L115.552 48.1718L115.778 48.4968L115.82 48.557L115.933 48.7101L116.141 49.0174L116.371 49.3436L116.675 49.784L116.94 50.1692L117.206 50.5543L117.414 50.8429L117.471 50.9207L117.775 51.3611L118.175 51.9369L118.402 52.2631L118.467 52.3622L118.533 52.4551L118.744 52.7625L118.991 53.1087L119.187 53.3898L119.315 53.5704L119.402 53.6946L119.503 53.8389L119.58 53.9531L119.591 53.9706L119.808 54.2805L119.887 54.3947L119.997 54.549L120.245 54.9141L120.492 55.2604L120.683 55.5439L120.851 55.7785L121.119 56.1637L121.346 56.4899L121.393 56.5589L121.478 56.6819L121.631 56.9115L121.896 57.2966L122.123 57.6228L122.162 57.7395L121.953 57.9302L121.801 58.0657L121.631 58.2188L121.422 58.3931L121.119 58.6428L120.758 58.9113L120.605 59.0129L120.586 59.0255L120.508 59.0744L120.378 59.161L120.155 59.3027L119.866 59.4872L119.577 59.6402L119.505 59.6791L119.449 59.7055L119.353 59.7569L119.157 59.8498L118.8 60.0254L118.573 60.1283L118.231 60.2939L117.891 60.4106L117.68 60.4883L117.223 60.5975L116.979 60.6602L116.934 60.6665L116.883 60.679L116.628 60.7154L116.371 60.7568L116.231 60.7719L116.087 60.7932L115.536 60.8509L114.814 60.8898H114.055L113.694 60.871L113.562 60.8559L113.485 60.8522L113.409 60.8409L113.332 60.8321L113.173 60.8058L113.086 60.7932L113.065 60.7895L112.991 60.7769L112.559 60.6715L112.508 60.659L112.44 60.6414L112.221 60.5699L112.136 60.5436L112.118 60.5373L112.02 60.5047L111.946 60.4633L111.908 60.4482L111.699 60.3315L111.669 60.3165L111.395 60.1785L111.243 60.0819L111.054 59.9652L111.045 59.9589L110.901 59.8711L110.81 59.8071L110.673 59.7168L110.578 59.639L110.389 59.4859L110.274 59.3893L110.181 59.3115L110.047 59.1785L109.704 58.8323L109.534 58.6604L109.4 58.5061L109.23 58.2953L109.173 58.2175L108.985 57.9678L108.946 57.9114V57.9089L108.719 57.5626L108.642 57.4484L108.547 57.274L108.377 56.9667L108.347 56.9039L108.32 56.8525L108.093 56.3707L108.022 56.1963L107.939 56.0069L107.883 55.8526L107.711 55.3733L107.69 55.3018L107.654 55.1989L107.588 54.9605L107.522 54.7397L107.475 54.5528L107.427 54.3746L107.393 54.2203L107.351 54.0484L107.304 53.8138L107.277 53.6833L107.262 53.5968L107.238 53.4726L107.208 53.2593L107.161 52.9732L107.129 52.7135L107.103 52.5304L107.094 52.425L107.083 52.3384L107.045 51.8403V50.9935L107.063 50.6296L107.072 50.5518L107.083 50.3586L107.109 50.1591L107.122 50.0349L107.148 49.8668L107.18 49.6309L107.222 49.3951L107.237 49.3047L107.273 49.1241L107.33 48.8054L107.349 48.7276L107.367 48.631L107.48 48.2032L107.54 47.9598L107.557 47.9021L107.578 47.8243L107.652 47.601L107.768 47.2296L107.806 47.133L107.976 46.6927L108.185 46.2109L108.203 46.177L108.207 46.1657L108.356 45.8847L108.427 45.7642L108.623 45.4242L108.811 45.1357L109.002 44.8672L109.211 44.5987L109.381 44.3879L109.457 44.3101L109.649 44.1169L109.78 43.9639L109.876 43.8861L109.988 43.7719L110.199 43.5975L110.27 43.5411L110.274 43.5386L110.286 43.5298L110.445 43.4056L110.71 43.2124L110.751 43.186L110.769 43.1747L111.091 42.9815L111.184 42.9238L111.461 42.7795L111.547 42.7318L111.662 42.6741H111.718L111.736 42.693L111.793 42.7507L111.827 42.8046L112.003 43.0781L112.25 43.4244L112.477 43.7506L113.54 45.285L113.77 45.6112L114.016 45.9574L114.472 46.6111L114.47 46.6161Z" fill="#FFFFFA"/>
<path d="M160.981 36.2024H164.318L164.452 36.3379L164.774 37.2626L165.071 38.0241L165.367 38.7593L165.77 39.8207L166.067 40.5823L166.283 41.1268L166.74 42.3237L167.063 43.1404L167.332 43.848L167.735 44.8818L168.166 45.9972L168.543 46.977L168.946 48.0108L169.538 49.5352L169.888 50.4598L170.21 51.2766L170.452 51.9026L170.91 53.0995L171.232 53.9163L171.529 54.7054L171.745 55.2499L171.933 55.6853L172.014 55.8484L172.122 55.4946L172.283 54.9237L172.525 54.2161L172.714 53.6716L173.036 52.6918L173.52 51.2766L173.897 50.1612L174.3 48.9907L174.677 47.8753L175.161 46.4601L175.538 45.3448L175.888 44.3373L176.319 43.0589L176.722 41.8883L177.286 40.2285L177.502 39.6024L177.905 38.4055L178.308 37.2626L178.605 36.3919L178.686 36.2564L178.739 36.2288L179.6 36.2012H182.399L183.287 36.2288V36.6102L182.64 36.7193L182.344 36.8285L182.128 36.9916L181.912 37.2099L181.67 37.6452L181.562 37.9714L181.509 38.4344V39.9311L181.536 43.0601V55.4958L181.509 56.7479V58.5169L181.562 59.2245L181.696 59.6875L181.912 60.0689L182.128 60.3135L182.531 60.5318L182.881 60.641L183.284 60.6949L183.312 60.7225L183.284 61.0763L182.073 61.1039H178.63L177.016 61.05L176.908 60.996L176.881 60.8053L176.961 60.6962L177.634 60.5331L177.956 60.37L178.225 60.1253L178.414 59.8807L178.548 59.5545L178.629 59.0915L178.656 58.547V38.546L178.629 38.1646L178.601 38.0555L178.467 38.5724L178.251 39.3339L177.929 40.2322L177.66 41.0214L177.444 41.675L177.147 42.5457L176.878 43.3349L176.528 44.3423L176.286 45.0775L175.99 45.9482L175.667 46.8729L175.425 47.6081L175.156 48.3696L174.887 49.1588L174.537 50.1926L174.187 51.2L173.918 51.9892L173.649 52.7507L173.46 53.3216L173.191 54.1107L172.438 56.2875L172.196 56.9951L171.793 58.192L171.39 59.3625L171.201 59.907L171.093 60.1253L171.013 60.1793L170.879 60.2069H170.663L170.474 60.1529L170.34 59.8807L170.018 58.9824L169.721 58.2472L169.238 56.9951L168.888 56.0968L168.511 55.1169L168.108 54.0831L167.758 53.1585L167.461 52.4233L166.95 51.062L166.654 50.3268L166.384 49.6192L166.088 48.8301L165.872 48.3132L165.334 46.898L165.064 46.218L164.742 45.3749L164.365 44.395L163.962 43.3612L163.612 42.4366L163.181 41.3212L162.885 40.5321L162.562 39.6074L162.428 39.3891L162.401 43.1994V55.0103L162.428 56.561L162.482 57.4593L162.562 58.1669L162.67 58.6838L162.886 59.3374L163.155 59.8543L163.397 60.1266L163.586 60.2897L164.016 60.508L164.366 60.6171L164.877 60.6987L164.985 60.7526V60.9709L164.932 61.0525L164.798 61.0801L163.103 61.1077H161.489L159.687 61.0801L159.337 61.0525L159.31 60.7263L159.418 60.6723L160.064 60.5632L160.414 60.454L160.736 60.2633L160.978 60.045L161.247 59.6636L161.489 59.1191L161.651 58.5746L161.731 58.1117L161.812 57.1318L161.839 56.4242L161.866 54.8183V39.4707L161.839 38.0279L161.678 37.7832L161.355 37.4294L161.275 37.3203L161.167 37.1848L160.87 36.9941L160.467 36.8034L160.037 36.6942L159.579 36.6127L159.471 36.5851L159.444 36.4759V36.2576L159.766 36.23L160.977 36.2024H160.981Z" fill="#FFFFFA"/>
<path d="M185.409 36.2649C187.503 36.2649 189.597 36.2649 191.69 36.2649C191.694 36.3891 191.698 36.5133 191.703 36.6363L191.65 36.8483L191.361 36.9274L190.941 37.0064L190.678 37.113L190.442 37.2987L190.233 37.5371L190.049 37.9624L189.971 38.3074L189.919 38.8381V58.4088L189.971 58.9395L190.076 59.4175L190.286 59.8428L190.496 60.0548L190.758 60.2142L190.968 60.3208L191.65 60.4802L191.676 60.5065V60.7988C191.667 60.8703 191.655 60.9419 191.645 61.0134C191.472 61.0033 191.298 60.9945 191.124 60.9845C189.566 61.0021 188.009 61.0196 186.451 61.0372H185.428V60.9042L185.376 60.7712V60.5592L185.428 60.4526L186.164 60.2669L186.427 60.1339L186.69 59.8955L186.847 59.6571L187.005 59.2858L187.083 58.8341L187.109 58.4088V39.0778L187.057 38.3338L186.979 37.9624L186.821 37.5647L186.663 37.3527L186.454 37.167L186.244 37.0604L185.877 36.9537L185.43 36.8747L185.404 36.7417C185.407 36.5823 185.409 36.423 185.412 36.2637L185.409 36.2649Z" fill="#FFFFFA"/>
<path d="M219.46 35.2559L219.594 35.2922L219.627 39.6633V41.2654H219.393L219.259 41.2291L219.125 40.2454L218.924 39.371L218.689 38.7148L218.354 38.0223L217.986 37.5129L217.651 37.1855L217.114 36.858L216.644 36.6761L216.207 36.5669L215.335 36.5305L211.343 36.4942V44.5074L211.745 44.5437L212.952 44.762L214.159 45.0895L215.031 45.4169L215.668 45.708L216.507 46.1446L217.145 46.5448L217.95 47.1282L218.42 47.5285L218.788 47.8559L219.19 48.2561L219.525 48.5836L219.962 49.0566L220.196 49.3476L220.598 49.8206L220.967 50.33L221.403 50.9498L221.84 51.6059L222.31 52.3349L222.712 53.0274L223.216 53.8655L223.618 54.5944L224.054 55.3233L224.456 56.0159L224.724 56.4525L225.195 57.1814L225.665 57.8376L225.933 58.2014L226.234 58.5653L226.771 59.1487L227.342 59.6216L227.879 59.9491L228.316 60.1674L228.853 60.3493L229.457 60.4585L229.894 60.4949H230.364L231.068 60.4221L231.84 60.2402L232.444 60.0219L233.082 59.6944L233.653 59.2578L234.089 58.8212L234.424 58.3846L234.726 57.8376L235.027 57.0723L235.195 56.307L235.228 56.0159V54.9231L235.128 54.1578L234.96 53.5744L234.692 52.9546L234.29 52.3349L234.022 52.0074V51.9346H233.955L233.788 51.7163L233.52 51.4617L232.916 50.9523L232.412 50.5885L231.841 50.2246L231.17 49.8244L229.158 48.7316L228.654 48.4406L227.883 48.0403L227.346 47.7493L226.708 47.4218L225.97 46.9852L225.232 46.5122L224.83 46.2212L224.428 45.8937L223.958 45.4571L223.723 45.2024L223.388 44.7294L223.154 44.3292L222.852 43.6367L222.685 42.9441L222.584 42.1424V41.1952L222.685 40.248L222.852 39.4463L223.154 38.6809L223.455 38.1339L223.723 37.7701L224.058 37.3699L224.528 36.9697L224.999 36.6422L225.536 36.3511L226.24 36.0964L227.012 35.8781L227.683 35.769L228.254 35.7326H229.797L230.636 35.8418L232.648 36.1692L233.016 36.2056H233.955L234.357 36.0237L234.625 35.8054L234.893 35.5507L235.061 35.5871L235.094 36.2069L235.128 38.3196L235.161 41.5615H234.826L234.726 41.2705L234.525 40.4324L234.257 39.6307L233.922 38.8654L233.52 38.2456L233.151 37.809L232.681 37.4088L232.245 37.1177L231.64 36.8266L230.969 36.6083L229.963 36.4264L229.192 36.3536H227.985L227.179 36.4628L226.575 36.6083L226.072 36.7902L225.434 37.1177L225.032 37.4088L224.63 37.8454L224.396 38.2092L224.195 38.6458L224.061 39.1188L223.994 39.7022V40.2116L224.094 40.9769L224.295 41.5603L224.563 42.0696L225 42.6167L225.268 42.9077L225.636 43.2352L226.24 43.7082L227.045 44.2552L227.851 44.7282L228.622 45.1648L229.126 45.4558L229.897 45.8561L230.837 46.3654L231.608 46.7657L232.815 47.4218L233.52 47.8584L234.157 48.3314L234.492 48.6225L234.827 48.9499L235.196 49.3502L235.531 49.8231L235.899 50.5157L236.134 51.1355L236.301 51.7189L236.469 52.7025L236.536 53.7952V54.4878L236.435 55.5805L236.268 56.455L236.067 57.1476L235.765 57.8765L235.564 58.2767L235.162 58.8601L234.794 59.2967L234.392 59.6969L233.855 60.0971L233.385 60.3882L232.881 60.6065L232.109 60.8612L231.539 61.0067L230.801 61.0795H229.391L228.62 60.934L228.183 60.7884L227.545 60.5337L226.807 60.0608L226.439 59.7697L226.07 59.4422L225.634 59.0056L225.366 58.7146L225.131 58.4235L224.729 57.9141L224.428 57.5139L223.958 56.8214L223.589 56.2743L222.985 55.2907L222.147 53.9433L221.71 53.2507L221.24 52.5218L220.535 51.5018L220.167 50.9924L219.73 50.4454L219.362 50.0088L219.127 49.7178L218.489 49.0252L218.221 48.7705L217.785 48.3703L217.147 47.8609L216.644 47.4971L216.006 47.0969L215.301 46.6967L214.396 46.2964L213.591 46.0054L212.752 45.7871L211.612 45.5688L211.344 45.5324L211.377 60.3217L215.805 60.2853L216.443 60.1762L216.946 59.9579L217.348 59.7032L217.65 59.4485L218.086 59.0119L218.523 58.3921L218.925 57.6268L219.159 57.0798L219.528 55.987L219.762 54.8943L219.863 54.3849L219.997 54.3121L220.131 54.3849L220.164 54.4577V60.8687H208.658L207.518 60.8323L207.116 60.796L207.083 60.6504L207.116 60.5049L207.25 60.4321L207.72 60.323L208.122 60.1047L208.39 59.8136L208.625 59.3042L208.692 58.8312L208.725 56.6821V45.4257L207.316 45.644L206.209 45.8987L205.103 46.2989L204.13 46.7719L203.56 47.0994L202.821 47.6088L202.284 48.0454L201.949 48.3364L201.446 48.8094L200.976 49.3188L200.741 49.6099L200.339 50.1192L199.902 50.7754L199.466 51.5043L199.131 52.1241L198.729 52.9986L198.361 53.9822L198.093 54.8566L197.892 55.6947L197.691 56.7147L197.557 57.9166L197.523 58.5728V59.9202L197.59 60.6856L197.758 61.6692L198.026 62.8347L198.294 63.6364L198.595 64.4017L198.93 65.0943L199.198 65.5672L199.499 66.0766L199.901 66.66L200.27 67.1694L200.672 67.6424L201.142 68.1894L201.544 68.5896L201.912 68.9171L202.314 69.2809L202.918 69.7539L203.489 70.1541L204.16 70.5907L205.066 71.1001L205.871 71.5003L206.843 71.9005L207.916 72.2644L209.192 72.5918L210.265 72.7737L211.338 72.8829L211.942 72.9193H213.619L215.263 72.8101L216.639 72.6282L218.249 72.3007L219.489 71.9733L220.596 71.6458L222.441 70.9897L223.749 70.4427L225.058 69.8593L226.198 69.3123L227.07 68.912L228.21 68.365L229.384 67.818L230.693 67.1982L231.9 66.6512L233.342 66.0678L234.819 65.5208L236.161 65.1206L237.1 64.8659L238.409 64.5748L239.582 64.3565L240.488 64.2474L241.293 64.1746L241.931 64.1382H244.279L245.386 64.211L246.358 64.3202L247.498 64.5385L248.169 64.684L249.343 65.0478L250.081 65.3389L250.92 65.7391L251.524 66.103L252.027 66.4668L252.464 66.8306L252.866 67.2309L253.134 67.4855L253.435 67.8858L253.77 68.3587L254.172 69.1604L254.44 69.8894L254.608 70.6183L254.708 71.3836L254.742 71.967V72.514L254.708 73.1338L254.608 73.8263L254.44 74.4825L254.172 75.1387L253.871 75.6857L253.603 76.0495L253.301 76.4133L253 76.7408L252.463 77.1774L251.825 77.5776L251.321 77.8323L250.583 78.1234L249.778 78.3417L248.806 78.5236L248.369 78.56H246.29L245.317 78.4145L244.445 78.1962L243.741 77.9779L242.969 77.6868L242.13 77.2866L241.057 76.7032L240.42 76.3393L239.849 76.0483L239.312 75.7572L238.44 75.3206L237.434 74.9567L236.729 74.8112L235.957 74.7384H235.521L234.816 74.8112L234.245 74.9931L233.809 75.2478L233.474 75.5753L233.273 75.83L233.005 76.4133L232.904 76.9967L232.837 77.6165L232.704 77.9076L232.536 78.0531H232.302L232.034 77.8348L231.9 77.6165L231.866 77.1435L231.933 76.7069L232.134 76.1976L232.436 75.7609L232.704 75.4699L233.174 75.0697L233.677 74.7422L234.382 74.3784L235.187 74.0873L235.892 73.9054L236.663 73.7962L237.1 73.7598H237.604L238.71 73.869L239.415 73.9782L240.354 74.1965L241.527 74.5967L242.667 75.106L243.774 75.6531L244.847 76.1624L245.719 76.5263L246.524 76.8173L247.229 76.9992L248.001 77.1448L248.873 77.2175H249.611L250.248 77.1448L251.054 76.9265L251.758 76.599L252.362 76.1988L252.866 75.7258L253.201 75.3256L253.569 74.7786L253.904 74.0133L254.072 73.4299L254.139 72.9933L254.172 72.5203V72.0473L254.105 71.2092L253.971 70.5531L253.77 69.8969L253.402 69.1316L253.1 68.695L252.799 68.2948L252.531 68.0401L252.129 67.6762L251.525 67.276L250.988 66.9849L250.149 66.6211L249.311 66.3664L248.238 66.1481L247.097 66.0026L246.696 65.9662H243.912L242.603 66.0754L241.328 66.2209L240.052 66.4392L238.643 66.7303L237.234 67.0941L236.261 67.3852L234.685 67.8945L233.478 68.3312L232.068 68.8782L231.297 69.2056L230.056 69.715L228.546 70.3711L227.44 70.8441L226.098 71.4275L224.891 71.9369L223.717 72.4099L222.845 72.7373L221.638 73.1739L220.229 73.6105L219.323 73.8652L218.25 74.1199L217.11 74.3382L215.903 74.5201L214.561 74.5929H212.783L211.576 74.5201L210.267 74.3382L209.127 74.1199L207.852 73.7925L206.745 73.4286L205.907 73.1012L205.035 72.701L204.196 72.2644L203.424 71.7914L202.787 71.3548L202.049 70.7714L201.714 70.4803L201.345 70.1528L201.01 69.8254L200.742 69.5707L200.508 69.316L200.273 69.0249L199.938 68.6247L199.57 68.1154L199.202 67.5683L198.867 67.0213L198.43 66.1833L198.028 65.2724L197.66 64.216L197.392 63.2324L197.191 62.176L197.023 61.0833L196.956 60.0997V58.2052L197.023 57.2943L197.191 55.9469L197.392 54.8541L197.66 53.7977L197.995 52.7777L198.262 52.0852L198.53 51.5018L198.832 50.882L199.336 50.0076L199.772 49.3878L200.074 48.9876L200.678 48.2586L201.08 47.822L201.348 47.5674L201.784 47.1671L202.389 46.6941L202.959 46.2939L203.496 45.9665L204.033 45.6754L204.805 45.3116L205.912 44.9113L206.75 44.693L207.823 44.5111L208.461 44.4384H208.729L208.695 38.1728L208.628 37.5531L208.494 37.1528L208.26 36.8254L207.959 36.6071L207.522 36.4615L207.153 36.3888L207.086 36.316V36.0249L207.22 35.9886L209.468 35.9522H210.173L211.279 35.9886H215.774L218.424 35.9158L218.692 35.843L219.06 35.6611L219.362 35.2973L219.462 35.2609L219.46 35.2559Z" fill="#FFFFFA"/>
<path d="M94.7087 58.7264C94.122 56.6625 93.8577 55.4117 93.2412 53.0781C93.1692 52.8033 93.0563 52.383 92.9087 51.8523C92.7933 51.4371 92.6581 50.9653 92.4745 50.3431C92.0143 48.7823 91.5553 47.2228 91.0951 45.6621L90.12 42.1304L89.0631 38.5999L88.4143 36.2186L88.1699 35.7256H87.6017L87.4392 35.8912L86.1403 40.1606L85.004 44.3485L84.1108 47.3044L83.3802 49.9315L82.4051 53.3805L81.1063 57.7314L80.4575 59.1278L79.8893 59.8668L79.2392 60.3586L78.1835 60.6886V61.0173H84.1108L84.1927 60.9345L84.0302 60.6058L83.2983 60.5242L82.8939 60.3586L82.3257 59.8668L81.9994 59.2106L81.8369 58.3061L81.9188 57.3212L82.0813 56.6638L83.0564 53.2977H90.3644V53.462C90.9226 55.4932 91.4809 57.5232 92.0391 59.5544C92.0614 59.6184 92.1917 60.0061 91.9969 60.2256C91.9026 60.3323 91.7674 60.3573 91.5925 60.3912C91.1918 60.4665 91.0429 60.3385 90.8606 60.4728C90.7527 60.5518 90.6609 60.7024 90.6981 60.8015C90.6981 60.8015 90.7167 60.9771 90.78 61.0097C90.9859 61.1176 95.0102 60.9194 96.7072 60.8843C96.7395 60.7889 96.7643 60.6622 96.7072 60.5556C96.5745 60.3097 96.1378 60.4276 95.6515 60.2256C95.4655 60.1478 95.2322 60.0086 95.0015 59.7338C94.9407 59.5306 94.834 59.173 94.7075 58.7264H94.7087ZM83.2201 52.723L83.3826 51.9013L84.0327 49.52L85.1678 45.6608L86.386 41.1442L86.5485 40.5696L86.7929 40.8155L87.361 42.6234L88.6599 47.3044L90.1212 52.2312L90.2019 52.723H83.2201Z" fill="#FFFFFA"/>
<path d="M61.1411 61.0455C61.1411 61.1308 61.151 61.2049 61.1622 61.2902H54.8987C54.8888 61.2049 54.8776 61.1308 54.8677 61.0455L55.2659 60.9715L55.7485 60.8649L56.0946 60.7381L56.3563 60.5362L56.535 60.3128L56.5771 60.1861L56.6193 59.8361V48.1331L56.0102 48.1118L49.3895 48.0804L49.4317 60.092L49.516 60.3894L49.7368 60.6441L50.0941 60.8247L50.5767 60.9414L51.1436 61.048L51.3222 61.1434C51.3222 61.1961 51.3222 61.25 51.3123 61.2914H44.8491C44.8392 61.2488 44.8392 61.2061 44.828 61.1748V61.048L45.751 60.8674L46.0971 60.7407L46.4122 60.496L46.5375 60.2727L46.5797 60.0707V37.5015L46.5375 37.0988L46.4122 36.8541L46.1504 36.6208L45.7932 36.4727L45.2262 36.3774L44.828 36.3034L44.8702 36.07L44.9223 36.0273H45.3528L45.5314 36.0487H47.3773L49.4751 36.07H50.1363L51.1858 36.1227V36.2707L51.1014 36.3234L50.398 36.4188L49.9998 36.5455L49.6537 36.7789L49.4751 37.0235L49.4329 37.1502L49.3907 47.7818H56.6094L56.5672 37.2029L56.525 37.0762L56.3464 36.8215L55.9792 36.5982L55.581 36.4715L54.8565 36.3761L54.7722 36.3234V36.1754L55.8427 36.1227H56.525L58.6761 36.1014H60.5642L60.7429 36.07H61.1944L61.2366 36.1227L61.2788 36.346L60.8806 36.42L60.2925 36.5267L59.9353 36.6747L59.6624 36.898L59.5259 37.1527L59.4837 37.5555V60.1134L59.4738 60.0707V60.166L59.5581 60.4207L59.779 60.6441L60.1772 60.846L60.7019 60.9728L61.1423 61.0468L61.1411 61.0455Z" fill="#FFFFFA"/>
<path d="M206.218 60.2178V60.7698L206.134 60.8865L204.213 60.9178C203.521 60.9078 202.829 60.8965 202.126 60.8865C200.562 60.8764 195.872 60.8764 194.372 60.8865V58.3609H194.32V39.0287L194.268 38.2859L194.184 37.9146L194.026 37.5118L193.869 37.2998L193.659 37.1191L193.449 37.0125L193.082 36.9059L192.642 36.8205L192.611 36.6938C192.611 36.5345 192.621 36.3752 192.621 36.2158H198.905C198.905 36.3325 198.905 36.4605 198.915 36.5872L198.863 36.7992L198.569 36.8732L198.15 36.9585L197.888 37.0652L197.657 37.2459L197.447 37.4905L197.259 37.9146L197.186 38.2546L197.134 38.7853V60.5578H201.624L202.663 60.5364L203.292 60.4624L203.711 60.3671L204.257 60.1764L204.676 59.9116L205.001 59.6043L205.337 59.1476L205.505 58.7662L205.63 58.2142L205.714 57.8328H206.051L206.093 57.9068L206.177 58.9782L206.219 60.219L206.218 60.2178Z" fill="#FFFFFA"/>
</svg>
