<svg width="109" height="81" viewBox="0 0 109 81" fill="none" xmlns="http://www.w3.org/2000/svg">
<path d="M92.7011 1.3305C92.5558 1.03961 92.3319 0.795208 92.0548 0.624966C91.7778 0.454724 91.4586 0.365438 91.1334 0.367213H17.9721C17.6484 0.367063 17.331 0.457114 17.0557 0.627266C16.7803 0.797417 16.5578 1.04094 16.4131 1.3305L11.6698 10.8188H0.552734V14.3027H11.6698L16.4131 23.7928C16.558 24.082 16.7806 24.3252 17.056 24.495C17.3313 24.6648 17.6486 24.7546 17.9721 24.7543H91.1334C91.4586 24.7561 91.7778 24.6668 92.0548 24.4966C92.3319 24.3263 92.5558 24.0819 92.7011 23.791L97.4357 14.3027H108.553V10.8188H97.4357L92.7011 1.3305ZM85.8135 12.5608L82.9114 21.2704H79.614L82.3331 13.1112C82.4551 12.7544 82.4551 12.3671 82.3331 12.0103L79.614 3.85108H82.9114L85.8135 12.5608ZM23.292 12.5608L26.194 3.85108H29.4915L26.7723 12.0103C26.6504 12.3671 26.6504 12.7544 26.7723 13.1112L29.4915 21.2704H26.194L23.292 12.5608ZM30.2597 12.5608L33.1618 3.85108H36.4593L33.7401 12.0103C33.6181 12.3671 33.6181 12.7544 33.7401 13.1112L36.4593 21.2704H33.1618L30.2597 12.5608ZM37.2274 12.5608L40.1295 3.85108H47.3498L41.0196 11.4459C40.7589 11.7589 40.6162 12.1534 40.6162 12.5608C40.6162 12.9681 40.7589 13.3626 41.0196 13.6756L47.3498 21.2704H40.1295L37.2274 12.5608ZM44.6237 12.5608L51.8823 3.85108H57.2162L64.4818 12.5608L57.2231 21.2704H51.8858L44.6237 12.5608ZM68.0823 13.6756C68.3431 13.3626 68.4858 12.9681 68.4858 12.5608C68.4858 12.1534 68.3431 11.7589 68.0823 11.4459L61.7556 3.85108H68.976L71.878 12.5608L68.976 21.2704H61.7556L68.0823 13.6756ZM75.3619 12.0103L72.6462 3.85108H75.9437L78.8458 12.5608L75.9437 21.2704H72.6462L75.3654 13.1112C75.4874 12.7544 75.4874 12.3671 75.3654 12.0103H75.3619ZM14.6938 12.5608L19.0486 3.85108H22.5238L19.8046 12.0103C19.6826 12.3671 19.6826 12.7544 19.8046 13.1112L22.5238 21.2704H19.0486L14.6938 12.5608ZM90.0569 21.2704H86.5817L89.3009 13.1112C89.4228 12.7544 89.4228 12.3671 89.3009 12.0103L86.5817 3.85108H90.0569L94.4117 12.5608L90.0569 21.2704Z" fill="#FFFFFA"/>
<path d="M59.7785 12.5608C59.7785 11.5272 59.472 10.5168 58.8978 9.65747C58.3236 8.79809 57.5075 8.12828 56.5526 7.73275C55.5977 7.33723 54.5469 7.23374 53.5332 7.43538C52.5195 7.63701 51.5884 8.13472 50.8575 8.86557C50.1267 9.59641 49.629 10.5276 49.4273 11.5413C49.2257 12.555 49.3292 13.6057 49.7247 14.5606C50.1202 15.5155 50.7901 16.3317 51.6494 16.9059C52.5088 17.4801 53.5192 17.7866 54.5527 17.7866C55.9387 17.7866 57.2679 17.236 58.2479 16.256C59.228 15.2759 59.7785 13.9467 59.7785 12.5608ZM52.8108 12.5608C52.8108 12.2162 52.913 11.8795 53.1044 11.593C53.2958 11.3065 53.5678 11.0833 53.8861 10.9514C54.2044 10.8196 54.5547 10.7851 54.8926 10.8523C55.2305 10.9195 55.5409 11.0854 55.7845 11.329C56.0281 11.5727 56.194 11.883 56.2612 12.2209C56.3284 12.5588 56.2939 12.9091 56.1621 13.2274C56.0302 13.5457 55.807 13.8177 55.5205 14.0091C55.234 14.2005 54.8973 14.3027 54.5527 14.3027C54.0907 14.3027 53.6477 14.1192 53.321 13.7925C52.9943 13.4658 52.8108 13.0228 52.8108 12.5608ZM92.7011 36.1692C92.5558 35.8783 92.3319 35.6339 92.0548 35.4637C91.7778 35.2934 91.4586 35.2042 91.1334 35.2059H17.9721C17.6484 35.2058 17.331 35.2958 17.0557 35.466C16.7803 35.6361 16.5578 35.8797 16.4131 36.1692L11.6698 45.6575H0.552734V49.1414H11.6698L16.4131 58.6315C16.558 58.9207 16.7806 59.1639 17.056 59.3337C17.3313 59.5036 17.6486 59.5933 17.9721 59.593H91.1334C91.4586 59.5948 91.7778 59.5055 92.0548 59.3353C92.3319 59.165 92.5558 58.9206 92.7011 58.6297L97.4357 49.1414H108.553V45.6575H97.4357L92.7011 36.1692ZM75.456 44.264L71.7422 38.6898H79.1698L75.456 44.264ZM73.3656 47.3995L68.4882 54.7156L63.6108 47.3995L68.4882 40.0834L73.3656 47.3995ZM61.5205 44.264L57.8067 38.6898H65.2343L61.5205 44.264ZM59.4302 47.3995L54.5527 54.7156L49.6753 47.3995L54.5527 40.0834L59.4302 47.3995ZM47.585 44.264L43.8712 38.6898H51.2988L47.585 44.264ZM45.4947 47.3995L40.6173 54.7156L35.7398 47.3995L40.6173 40.0834L45.4947 47.3995ZM33.6495 44.264L29.9357 38.6898H37.3633L33.6495 44.264ZM31.5592 47.3995L26.6818 54.7156L21.8043 47.3995L26.6818 40.0834L31.5592 47.3995ZM33.6495 50.535L37.3633 56.1092H29.9357L33.6495 50.535ZM47.585 50.535L51.2988 56.1092H43.8712L47.585 50.535ZM61.5205 50.535L65.2325 56.1092H57.8067L61.5205 50.535ZM75.456 50.535L79.168 56.1092H71.7439L75.456 50.535ZM77.5463 47.3995L82.4237 40.0834L87.3011 47.3995L82.4237 54.7156L77.5463 47.3995ZM14.6938 47.3995L19.0486 38.6898H23.4278L18.2647 46.4327C18.0738 46.719 17.9718 47.0554 17.9718 47.3995C17.9718 47.7436 18.0738 48.08 18.2647 48.3663L23.4278 56.1092H19.0486L14.6938 47.3995ZM90.0569 56.1092H85.6794L90.8407 48.3663C91.0313 48.0802 91.1331 47.7441 91.1331 47.4004C91.1331 47.0566 91.0313 46.7205 90.8407 46.4344L85.6776 38.6898H90.0569L94.4117 47.3995L90.0569 56.1092ZM89.3914 70.0446C88.1017 70.0492 86.8598 70.5335 85.9076 71.4034C84.9578 70.5296 83.7143 70.0446 82.4237 70.0446C81.1331 70.0446 79.8896 70.5296 78.9398 71.4034C77.99 70.5296 76.7466 70.0446 75.456 70.0446C74.1654 70.0446 72.9219 70.5296 71.9721 71.4034C71.0223 70.5296 69.7788 70.0446 68.4882 70.0446C67.1976 70.0446 65.9541 70.5296 65.0043 71.4034C64.0545 70.5296 62.8111 70.0446 61.5205 70.0446C60.2299 70.0446 58.9864 70.5296 58.0366 71.4034C57.0868 70.5296 55.8433 70.0446 54.5527 70.0446C53.2621 70.0446 52.0187 70.5296 51.0689 71.4034C50.1191 70.5296 48.8756 70.0446 47.585 70.0446C46.2944 70.0446 45.0509 70.5296 44.1011 71.4034C43.1513 70.5296 41.9078 70.0446 40.6173 70.0446C39.3267 70.0446 38.0832 70.5296 37.1334 71.4034C36.1836 70.5296 34.9401 70.0446 33.6495 70.0446C32.3589 70.0446 31.1154 70.5296 30.1656 71.4034C29.2158 70.5296 27.9724 70.0446 26.6818 70.0446C25.3912 70.0446 24.1477 70.5296 23.1979 71.4034C22.565 70.8237 21.7979 70.4104 20.9656 70.2008C20.1333 69.9912 19.262 69.9918 18.43 70.2026C17.598 70.4133 16.8314 70.8277 16.1993 71.4082C15.5672 71.9888 15.0893 72.7174 14.8087 73.5285H0.552734V77.0124H14.8087C15.0893 77.8235 15.5672 78.5521 16.1993 79.1327C16.8314 79.7132 17.598 80.1275 18.43 80.3383C19.262 80.5491 20.1333 80.5497 20.9656 80.3401C21.7979 80.1305 22.565 79.7172 23.1979 79.1376C24.1477 80.0113 25.3912 80.4963 26.6818 80.4963C27.9724 80.4963 29.2158 80.0113 30.1656 79.1376C31.1154 80.0113 32.3589 80.4963 33.6495 80.4963C34.9401 80.4963 36.1836 80.0113 37.1334 79.1376C38.0832 80.0113 39.3267 80.4963 40.6173 80.4963C41.9078 80.4963 43.1513 80.0113 44.1011 79.1376C45.0509 80.0113 46.2944 80.4963 47.585 80.4963C48.8756 80.4963 50.1191 80.0113 51.0689 79.1376C52.0187 80.0113 53.2621 80.4963 54.5527 80.4963C55.8433 80.4963 57.0868 80.0113 58.0366 79.1376C58.9864 80.0113 60.2299 80.4963 61.5205 80.4963C62.8111 80.4963 64.0545 80.0113 65.0043 79.1376C65.9541 80.0113 67.1976 80.4963 68.4882 80.4963C69.7788 80.4963 71.0223 80.0113 71.9721 79.1376C72.9219 80.0113 74.1654 80.4963 75.456 80.4963C76.7466 80.4963 77.99 80.0113 78.9398 79.1376C79.8896 80.0113 81.1331 80.4963 82.4237 80.4963C83.7143 80.4963 84.9578 80.0113 85.9076 79.1376C86.5405 79.7172 87.3076 80.1305 88.1399 80.3401C88.9722 80.5497 89.8435 80.5491 90.6755 80.3383C91.5075 80.1275 92.274 79.7132 92.9062 79.1327C93.5383 78.5521 94.0161 77.8235 94.2967 77.0124H108.553V73.5285H94.2967C93.9378 72.5131 93.2738 71.6334 92.3958 71.0098C91.5177 70.3862 90.4684 70.0491 89.3914 70.0446ZM19.714 77.0124C19.3695 77.0124 19.0327 76.9102 18.7463 76.7188C18.4598 76.5274 18.2365 76.2554 18.1047 75.9371C17.9728 75.6188 17.9383 75.2685 18.0056 74.9306C18.0728 74.5927 18.2387 74.2823 18.4823 74.0387C18.7259 73.7951 19.0363 73.6292 19.3742 73.562C19.7121 73.4948 20.0623 73.5293 20.3806 73.6611C20.6989 73.793 20.971 74.0162 21.1624 74.3027C21.3538 74.5891 21.456 74.9259 21.456 75.2704C21.456 75.7324 21.2724 76.1755 20.9458 76.5022C20.6191 76.8289 20.176 77.0124 19.714 77.0124ZM26.6818 77.0124C26.3372 77.0124 26.0005 76.9102 25.714 76.7188C25.4275 76.5274 25.2043 76.2554 25.0724 75.9371C24.9406 75.6188 24.9061 75.2685 24.9733 74.9306C25.0405 74.5927 25.2064 74.2823 25.45 74.0387C25.6936 73.7951 26.004 73.6292 26.3419 73.562C26.6798 73.4948 27.0301 73.5293 27.3484 73.6611C27.6667 73.793 27.9387 74.0162 28.1301 74.3027C28.3215 74.5891 28.4237 74.9259 28.4237 75.2704C28.4237 75.7324 28.2402 76.1755 27.9135 76.5022C27.5868 76.8289 27.1438 77.0124 26.6818 77.0124ZM33.6495 77.0124C33.305 77.0124 32.9682 76.9102 32.6817 76.7188C32.3953 76.5274 32.172 76.2554 32.0402 75.9371C31.9083 75.6188 31.8738 75.2685 31.941 74.9306C32.0083 74.5927 32.1742 74.2823 32.4178 74.0387C32.6614 73.7951 32.9718 73.6292 33.3097 73.562C33.6476 73.4948 33.9978 73.5293 34.3161 73.6611C34.6344 73.793 34.9065 74.0162 35.0979 74.3027C35.2893 74.5891 35.3914 74.9259 35.3914 75.2704C35.3914 75.7324 35.2079 76.1755 34.8812 76.5022C34.5546 76.8289 34.1115 77.0124 33.6495 77.0124ZM40.6173 77.0124C40.2727 77.0124 39.9359 76.9102 39.6495 76.7188C39.363 76.5274 39.1398 76.2554 39.0079 75.9371C38.8761 75.6188 38.8416 75.2685 38.9088 74.9306C38.976 74.5927 39.1419 74.2823 39.3855 74.0387C39.6291 73.7951 39.9395 73.6292 40.2774 73.562C40.6153 73.4948 40.9656 73.5293 41.2839 73.6611C41.6022 73.793 41.8742 74.0162 42.0656 74.3027C42.257 74.5891 42.3592 74.9259 42.3592 75.2704C42.3592 75.7324 42.1757 76.1755 41.849 76.5022C41.5223 76.8289 41.0792 77.0124 40.6173 77.0124ZM47.585 77.0124C47.2405 77.0124 46.9037 76.9102 46.6172 76.7188C46.3308 76.5274 46.1075 76.2554 45.9757 75.9371C45.8438 75.6188 45.8093 75.2685 45.8765 74.9306C45.9437 74.5927 46.1096 74.2823 46.3533 74.0387C46.5969 73.7951 46.9073 73.6292 47.2452 73.562C47.5831 73.4948 47.9333 73.5293 48.2516 73.6611C48.5699 73.793 48.842 74.0162 49.0334 74.3027C49.2248 74.5891 49.3269 74.9259 49.3269 75.2704C49.3269 75.7324 49.1434 76.1755 48.8167 76.5022C48.4901 76.8289 48.047 77.0124 47.585 77.0124ZM54.5527 77.0124C54.2082 77.0124 53.8714 76.9102 53.585 76.7188C53.2985 76.5274 53.0752 76.2554 52.9434 75.9371C52.8116 75.6188 52.7771 75.2685 52.8443 74.9306C52.9115 74.5927 53.0774 74.2823 53.321 74.0387C53.5646 73.7951 53.875 73.6292 54.2129 73.562C54.5508 73.4948 54.901 73.5293 55.2193 73.6611C55.5376 73.793 55.8097 74.0162 56.0011 74.3027C56.1925 74.5891 56.2947 74.9259 56.2947 75.2704C56.2947 75.7324 56.1111 76.1755 55.7845 76.5022C55.4578 76.8289 55.0147 77.0124 54.5527 77.0124ZM61.5205 77.0124C61.176 77.0124 60.8392 76.9102 60.5527 76.7188C60.2663 76.5274 60.043 76.2554 59.9111 75.9371C59.7793 75.6188 59.7448 75.2685 59.812 74.9306C59.8792 74.5927 60.0451 74.2823 60.2887 74.0387C60.5324 73.7951 60.8427 73.6292 61.1806 73.562C61.5185 73.4948 61.8688 73.5293 62.1871 73.6611C62.5054 73.793 62.7774 74.0162 62.9688 74.3027C63.1603 74.5891 63.2624 74.9259 63.2624 75.2704C63.2624 75.7324 63.0789 76.1755 62.7522 76.5022C62.4255 76.8289 61.9825 77.0124 61.5205 77.0124ZM68.4882 77.0124C68.1437 77.0124 67.8069 76.9102 67.5205 76.7188C67.234 76.5274 67.0107 76.2554 66.8789 75.9371C66.747 75.6188 66.7125 75.2685 66.7798 74.9306C66.847 74.5927 67.0129 74.2823 67.2565 74.0387C67.5001 73.7951 67.8105 73.6292 68.1484 73.562C68.4863 73.4948 68.8365 73.5293 69.1548 73.6611C69.4731 73.793 69.7452 74.0162 69.9366 74.3027C70.128 74.5891 70.2302 74.9259 70.2302 75.2704C70.2302 75.7324 70.0466 76.1755 69.72 76.5022C69.3933 76.8289 68.9502 77.0124 68.4882 77.0124ZM75.456 77.0124C75.1114 77.0124 74.7747 76.9102 74.4882 76.7188C74.2017 76.5274 73.9785 76.2554 73.8466 75.9371C73.7148 75.6188 73.6803 75.2685 73.7475 74.9306C73.8147 74.5927 73.9806 74.2823 74.2242 74.0387C74.4678 73.7951 74.7782 73.6292 75.1161 73.562C75.454 73.4948 75.8043 73.5293 76.1226 73.6611C76.4409 73.793 76.7129 74.0162 76.9043 74.3027C77.0957 74.5891 77.1979 74.9259 77.1979 75.2704C77.1979 75.7324 77.0144 76.1755 76.6877 76.5022C76.361 76.8289 75.918 77.0124 75.456 77.0124ZM82.4237 77.0124C82.0792 77.0124 81.7424 76.9102 81.4559 76.7188C81.1695 76.5274 80.9462 76.2554 80.8144 75.9371C80.6825 75.6188 80.648 75.2685 80.7152 74.9306C80.7824 74.5927 80.9483 74.2823 81.192 74.0387C81.4356 73.7951 81.746 73.6292 82.0839 73.562C82.4218 73.4948 82.772 73.5293 83.0903 73.6611C83.4086 73.793 83.6807 74.0162 83.8721 74.3027C84.0635 74.5891 84.1656 74.9259 84.1656 75.2704C84.1656 75.7324 83.9821 76.1755 83.6554 76.5022C83.3288 76.8289 82.8857 77.0124 82.4237 77.0124ZM89.3914 77.0124C89.0469 77.0124 88.7101 76.9102 88.4237 76.7188C88.1372 76.5274 87.914 76.2554 87.7821 75.9371C87.6503 75.6188 87.6158 75.2685 87.683 74.9306C87.7502 74.5927 87.9161 74.2823 88.1597 74.0387C88.4033 73.7951 88.7137 73.6292 89.0516 73.562C89.3895 73.4948 89.7398 73.5293 90.0581 73.6611C90.3764 73.793 90.6484 74.0162 90.8398 74.3027C91.0312 74.5891 91.1334 74.9259 91.1334 75.2704C91.1334 75.7324 90.9499 76.1755 90.6232 76.5022C90.2965 76.8289 89.8534 77.0124 89.3914 77.0124Z" fill="#FFFFFA"/>
</svg>
