<svg width="86" height="86" viewBox="0 0 86 86" fill="none" xmlns="http://www.w3.org/2000/svg">
<path d="M37.1725 0H26.0207V11.1517H37.1725V0Z" fill="#FFFFFA"/>
<path d="M63.1932 18.5862V0H40.8897V13.0104C40.8897 13.5033 40.6939 13.9761 40.3454 14.3246C39.9968 14.6732 39.5241 14.869 39.0311 14.869H24.1621C23.6692 14.869 23.1964 14.6732 22.8479 14.3246C22.4993 13.9761 22.3035 13.5033 22.3035 13.0104V0H0V63.1932H42.7484V24.1621C42.7484 22.6833 43.3358 21.2651 44.3815 20.2194C45.4272 19.1737 46.8454 18.5862 48.3242 18.5862H63.1932ZM14.869 57.6174H7.4345C6.94156 57.6174 6.46881 57.4215 6.12025 57.073C5.77169 56.7244 5.57587 56.2517 5.57587 55.7587C5.57587 55.2658 5.77169 54.793 6.12025 54.4445C6.46881 54.0959 6.94156 53.9001 7.4345 53.9001H14.869C15.3619 53.9001 15.8347 54.0959 16.1832 54.4445C16.5318 54.793 16.7276 55.2658 16.7276 55.7587C16.7276 56.2517 16.5318 56.7244 16.1832 57.073C15.8347 57.4215 15.3619 57.6174 14.869 57.6174ZM14.869 50.1829H7.4345C6.94156 50.1829 6.46881 49.987 6.12025 49.6385C5.77169 49.2899 5.57587 48.8172 5.57587 48.3242C5.57587 47.8313 5.77169 47.3585 6.12025 47.01C6.46881 46.6614 6.94156 46.4656 7.4345 46.4656H14.869C15.3619 46.4656 15.8347 46.6614 16.1832 47.01C16.5318 47.3585 16.7276 47.8313 16.7276 48.3242C16.7276 48.8172 16.5318 49.2899 16.1832 49.6385C15.8347 49.987 15.3619 50.1829 14.869 50.1829Z" fill="#FFFFFA"/>
<path d="M72.2633 65.907C69.6055 64.0484 66.9105 62.8589 66.9105 59.1045C66.9069 57.5856 67.481 56.1222 68.5164 55.0109C69.5518 53.8995 70.971 53.2235 72.4863 53.1197V24.1623C72.4863 23.6694 72.2905 23.1966 71.942 22.8481C71.5934 22.4995 71.1207 22.3037 70.6277 22.3037H48.3242C47.8313 22.3037 47.3585 22.4995 47.01 22.8481C46.6614 23.1966 46.4656 23.6694 46.4656 24.1623V65.0521C46.4656 65.545 46.6614 66.0178 47.01 66.3663C47.3585 66.7149 47.8313 66.9107 48.3242 66.9107C71.9288 66.9107 71.557 67.3382 72.2633 65.907ZM57.6174 29.7382C57.6174 29.2453 57.8132 28.7725 58.1617 28.424C58.5103 28.0754 58.983 27.8796 59.476 27.8796C59.9689 27.8796 60.4417 28.0754 60.7902 28.424C61.1388 28.7725 61.3346 29.2453 61.3346 29.7382V33.4555C61.3346 33.9484 61.1388 34.4211 60.7902 34.7697C60.4417 35.1183 59.9689 35.3141 59.476 35.3141C58.983 35.3141 58.5103 35.1183 58.1617 34.7697C57.8132 34.4211 57.6174 33.9484 57.6174 33.4555V29.7382ZM61.3346 59.4762C61.3346 59.9691 61.1388 60.4419 60.7902 60.7905C60.4417 61.139 59.9689 61.3348 59.476 61.3348C58.983 61.3348 58.5103 61.139 58.1617 60.7905C57.8132 60.4419 57.6174 59.9691 57.6174 59.4762V55.759C57.6174 55.266 57.8132 54.7933 58.1617 54.4447C58.5103 54.0961 58.983 53.9003 59.476 53.9003C59.9689 53.9003 60.4417 54.0961 60.7902 54.4447C61.1388 54.7933 61.3346 55.266 61.3346 55.759V59.4762ZM59.476 48.3245C58.7408 48.3245 58.0221 48.1064 57.4108 47.698C56.7995 47.2895 56.323 46.709 56.0417 46.0297C55.7603 45.3505 55.6867 44.6031 55.8302 43.882C55.9736 43.1609 56.3276 42.4986 56.8475 41.9787C57.3674 41.4588 58.0297 41.1048 58.7508 40.9614C59.4719 40.818 60.2193 40.8916 60.8985 41.1729C61.5777 41.4543 62.1583 41.9307 62.5668 42.542C62.9752 43.1533 63.1932 43.872 63.1932 44.6072C63.1932 45.5931 62.8016 46.5386 62.1045 47.2357C61.4074 47.9328 60.4619 48.3245 59.476 48.3245ZM76.2036 40.89V54.0304L85.4967 59.0673C85.4967 48.8449 86.5933 51.2797 76.2036 40.89Z" fill="#FFFFFA"/>
<path d="M71.7615 57.1342C71.425 57.3297 71.1439 57.6078 70.945 57.9422C70.746 58.2767 70.6357 58.6564 70.6246 59.0454C70.6134 59.4344 70.7017 59.8198 70.8812 60.1652C71.0606 60.5105 71.3252 60.8043 71.65 61.0187L75.3672 63.5093C77.5232 64.8847 74.5308 70.6278 78.0622 70.6278C78.5552 70.6278 79.0279 70.8236 79.3765 71.1722C79.725 71.5207 79.9209 71.9935 79.9209 72.4864C79.9209 72.9794 79.725 73.4521 79.3765 73.8007C79.0279 74.1492 78.5552 74.3451 78.0622 74.3451C76.8381 74.3423 75.649 73.9367 74.6782 73.191C73.7075 72.4453 73.0091 71.4009 72.6908 70.2189C71.334 70.7765 72.1518 70.6278 55.8145 70.6278C55.958 71.8516 56.4034 73.0205 57.1106 74.0295C57.8179 75.0385 58.7648 75.8559 59.8663 76.4081L61.1302 77.0401C61.7495 77.3478 62.2707 77.8222 62.6351 78.41C62.9996 78.9977 63.1929 79.6754 63.1932 80.367V85.4968H81.7795C81.7795 79.4749 81.4635 78.3783 82.8761 76.9657C86.1658 73.6759 85.4967 72.1147 85.4967 63.2862C73.6387 56.874 73.2856 56.2049 71.7615 57.1342Z" fill="#FFFFFA"/>
</svg>
