<svg width="86" height="82" viewBox="0 0 86 82" fill="none" xmlns="http://www.w3.org/2000/svg">
<path d="M43.0527 12.6097C37.4332 12.6097 31.9399 14.2746 27.2674 17.3938C22.595 20.513 18.9532 24.9464 16.8027 30.1334C14.6522 35.3204 14.0896 41.0281 15.1859 46.5346C16.2822 52.0411 18.9882 57.0991 22.9618 61.0691C26.9354 65.0391 31.9981 67.7427 37.5096 68.838C43.0212 69.9333 48.734 69.3711 53.9258 67.2226C59.1175 65.0741 63.555 61.4357 66.677 56.7675C69.799 52.0993 71.4654 46.611 71.4654 40.9966C71.4577 33.4703 68.4618 26.2544 63.1351 20.9325C57.8083 15.6106 50.5858 12.6174 43.0527 12.6097ZM62.3291 37.7329L54.4688 45.1951L56.1702 55.8869C56.2459 56.3578 56.1871 56.8405 56.0005 57.2796C55.8139 57.7186 55.5071 58.0961 55.1153 58.3687C54.6922 58.6816 54.1786 58.8486 53.6522 58.8446C53.2249 58.8441 52.8044 58.7391 52.4272 58.5386L42.8996 53.3712L33.2528 58.3007C32.8279 58.5145 32.3517 58.6059 31.8776 58.5647C31.4036 58.5234 30.9504 58.351 30.5689 58.0669C30.1874 57.7828 29.8926 57.3981 29.7176 56.9561C29.5425 56.514 29.4942 56.0319 29.5779 55.564L31.5515 44.9231L23.8783 37.257C23.5406 36.9212 23.3037 36.4976 23.1945 36.0342C23.0853 35.5708 23.1082 35.0861 23.2604 34.635C23.4127 34.1839 23.6883 33.7844 24.0561 33.4818C24.4239 33.1791 24.8692 32.9854 25.3415 32.9225L36.0941 31.5116L41.011 21.8567C41.2389 21.4444 41.5708 21.0988 41.9737 20.8542C42.3766 20.6097 42.8366 20.4748 43.3079 20.4629C43.784 20.4715 44.2486 20.6108 44.6507 20.8657C45.0528 21.1205 45.377 21.481 45.5877 21.9077L50.2494 31.6816L60.968 33.3814C61.4378 33.4543 61.8778 33.6568 62.2385 33.9662C62.5992 34.2755 62.8663 34.6794 63.0096 35.1322C63.1462 35.5864 63.1549 36.0693 63.0348 36.528C62.9148 36.9868 62.6706 37.4037 62.3291 37.7329ZM82.0649 46.164C83.7833 44.3792 85.5527 42.5264 85.5527 40.9966C85.5527 39.4668 83.7833 37.614 82.0649 35.8292C80.173 34.1542 78.6841 32.0741 77.7094 29.7438C77.102 27.2104 77.0729 24.5729 77.6243 22.0267C77.9476 19.63 78.2709 17.1652 77.4372 16.0264C76.6035 14.8875 74.1195 14.4285 71.7376 13.9866C69.1609 13.7217 66.6744 12.8917 64.4558 11.5559C62.5209 9.87206 60.9815 7.78267 59.9472 5.43653C58.7903 3.27777 57.5993 1.05102 56.1872 0.592072C54.9112 0.184117 52.6824 1.238 50.5387 2.27489C48.2453 3.59223 45.6892 4.38741 43.0527 4.60363C40.4162 4.38741 37.86 3.59223 35.5667 2.27489C33.423 1.238 31.1942 0.167119 29.9182 0.592072C28.506 1.05102 27.3151 3.27777 26.1582 5.43653C25.1239 7.78267 23.5844 9.87206 21.6496 11.5559C19.431 12.8917 16.9445 13.7217 14.3677 13.9866C11.9858 14.4285 9.50183 14.8705 8.66817 16.0264C7.8345 17.1822 8.15776 19.63 8.48102 22.0267C9.03246 24.5729 9.00339 27.2104 8.39595 29.7438C7.42127 32.0741 5.9324 34.1542 4.04046 35.8292C2.32209 37.614 0.552673 39.4668 0.552673 40.9966C0.552673 42.5264 2.32209 44.3792 4.04046 46.164C5.9324 47.8389 7.42127 49.9191 8.39595 52.2493C9.00339 54.7828 9.03246 57.4203 8.48102 59.9665C8.15776 62.3632 7.8345 64.8279 8.66817 65.9668C9.50183 67.1057 11.9858 67.5646 14.3677 68.0066C16.9445 68.2714 19.431 69.1014 21.6496 70.4373C23.5844 72.1211 25.1239 74.2105 26.1582 76.5566C27.3151 78.7154 28.506 80.9421 29.9182 81.4011C31.1942 81.809 33.423 80.7552 35.5667 79.7183C37.86 78.4009 40.4162 77.6058 43.0527 77.3895C45.6892 77.6058 48.2453 78.4009 50.5387 79.7183C52.6824 80.7552 54.9112 81.826 56.1872 81.4011C57.5993 80.9421 58.7903 78.7154 59.9472 76.5566C60.9815 74.2105 62.5209 72.1211 64.4558 70.4373C66.6744 69.1014 69.1609 68.2714 71.7376 68.0066C74.1195 67.5646 76.6035 67.1227 77.4372 65.9668C78.2709 64.8109 77.9476 62.3632 77.6243 59.9665C77.0729 57.4203 77.102 54.7828 77.7094 52.2493C78.6841 49.9191 80.173 47.8389 82.0649 46.164ZM43.0527 74.4829C36.4237 74.4829 29.9435 72.5189 24.4317 68.8394C18.9199 65.1599 14.624 59.93 12.0872 53.8112C9.55037 47.6924 8.88662 40.9594 10.1799 34.4637C11.4731 27.968 14.6653 22.0013 19.3527 17.3182C24.0401 12.6351 30.0122 9.44581 36.5139 8.15373C43.0155 6.86166 49.7546 7.5248 55.879 10.0593C62.0034 12.5938 67.238 16.8858 70.9209 22.3926C74.6038 27.8994 76.5695 34.3736 76.5695 40.9966C76.5578 49.8741 73.0228 58.3847 66.7397 64.662C60.4566 70.9394 51.9383 74.4712 43.0527 74.4829ZM48.1397 36.5091L55.0643 37.597L49.9772 42.4244C49.678 42.7127 49.4523 43.0684 49.3191 43.4617C49.1859 43.8551 49.149 44.2746 49.2116 44.6852L50.3175 51.5864L44.1586 48.2548C43.7814 48.0543 43.3608 47.9493 42.9336 47.9488C42.5319 47.9477 42.1357 48.0408 41.7767 48.2208L35.5327 51.3994L36.8087 44.5152C36.8817 44.1087 36.8549 43.6906 36.7304 43.2968C36.6059 42.903 36.3876 42.5453 36.0941 42.2544L31.1431 37.308L38.0847 36.3901C38.4952 36.334 38.886 36.1795 39.2238 35.9397C39.5615 35.6999 39.8362 35.3821 40.0243 35.0132L43.2058 28.7749L46.2342 35.0982C46.4145 35.4694 46.682 35.7915 47.0138 36.0372C47.3455 36.2828 47.7318 36.4447 48.1397 36.5091Z" fill="#FFFFFA"/>
</svg>
