<svg width="85" height="85" viewBox="0 0 85 85" fill="none" xmlns="http://www.w3.org/2000/svg">
<path d="M81.3219 61.8812H55.4758C54.6189 61.8812 53.7971 62.2216 53.1913 62.8274C52.5854 63.4333 52.245 64.2551 52.245 65.1119V81.2658C52.245 82.1226 52.5854 82.9444 53.1913 83.5503C53.7971 84.1562 54.6189 84.4966 55.4758 84.4966H81.3219C82.1788 84.4966 83.0005 84.1562 83.6064 83.5503C84.2123 82.9444 84.5527 82.1226 84.5527 81.2658V65.1119C84.5527 64.2551 84.2123 63.4333 83.6064 62.8274C83.0005 62.2216 82.1788 61.8812 81.3219 61.8812ZM70.0142 72.7527V76.4196C70.0142 76.8481 69.844 77.2589 69.5411 77.5619C69.2381 77.8648 68.8273 78.035 68.3988 78.035C67.9704 78.035 67.5595 77.8648 67.2566 77.5619C66.9536 77.2589 66.7835 76.8481 66.7835 76.4196V72.7527C66.1675 72.3971 65.6862 71.8482 65.414 71.1912C65.1418 70.5341 65.0941 69.8056 65.2782 69.1186C65.4622 68.4316 65.8678 67.8246 66.4321 67.3916C66.9963 66.9587 67.6876 66.724 68.3988 66.724C69.11 66.724 69.8014 66.9587 70.3656 67.3916C70.9298 67.8246 71.3355 68.4316 71.5195 69.1186C71.7036 69.8056 71.6558 70.5341 71.3837 71.1912C71.1115 71.8482 70.6301 72.3971 70.0142 72.7527ZM66.8965 42.6096H66.6058L65.6527 42.8035L65.1681 42.9812L64.6835 43.1427C64.2774 43.2706 63.8829 43.4327 63.5042 43.6273C63.0157 43.8476 62.5457 44.1069 62.0988 44.4027C61.8247 44.5821 61.5604 44.7762 61.3073 44.9843C59.9841 46.0406 58.9174 47.3829 58.1872 48.9105C57.457 50.438 57.0823 52.1112 57.0911 53.8043V58.6504H60.3219V53.8043C60.3219 51.6621 61.1729 49.6077 62.6876 48.093C64.2023 46.5783 66.2567 45.7273 68.3988 45.7273C68.7484 45.7027 69.0993 45.7027 69.4488 45.7273C69.7444 45.7597 70.0364 45.8192 70.3211 45.905H70.4504C72.1913 46.3621 73.7296 47.3876 74.8212 48.8187C75.9128 50.2497 76.4952 52.0045 76.4758 53.8043V58.6504H79.7065V53.8043C79.7279 52.3113 79.4534 50.829 78.8989 49.4427C78.3444 48.0564 77.5209 46.7937 76.4758 45.7273C74.6915 43.9675 72.3845 42.8338 69.9011 42.4966C69.401 42.4601 68.8989 42.4601 68.3988 42.4966C67.8962 42.5021 67.3944 42.5399 66.8965 42.6096Z" fill="#FFFFFA"/>
<path d="M66.9127 13.4197L57.8665 0.496582H41.2927L43.8773 13.4197H66.9127Z" fill="#FFFFFA"/>
<path d="M27.6588 0.496582H11.085L2.03885 13.4197H25.0742L27.6588 0.496582Z" fill="#FFFFFA"/>
<path d="M37.9973 0.496582H30.9542L28.3696 13.4197H40.5819L37.9973 0.496582Z" fill="#FFFFFA"/>
<path d="M53.8604 58.8765V53.8042C53.8582 51.6296 54.3482 49.4827 55.2938 47.5243C56.2394 45.566 57.616 43.8472 59.3204 42.4965C59.7193 42.1716 60.1403 41.8747 60.5804 41.6081C60.8509 41.4258 61.1313 41.2586 61.4204 41.1073C61.5838 41.0132 61.7572 40.9373 61.9373 40.8812C62.0146 40.8223 62.1023 40.7784 62.1957 40.7519C62.3277 40.6712 62.4687 40.6061 62.6157 40.5581C62.7753 40.4716 62.943 40.4013 63.1165 40.3481L63.585 40.1704L64.1827 39.9765L63.8273 40.0735C64.1614 39.9595 64.5011 39.8625 64.845 39.7827C65.0511 39.7189 65.2617 39.6704 65.475 39.6373C65.6761 39.5826 65.8814 39.5448 66.0888 39.5242C66.2583 39.4816 66.4313 39.4545 66.6057 39.4435H67.3004C67.6719 39.4435 68.0596 39.4435 68.4473 39.4435V16.6504H44.1681V27.9581C44.1681 28.3865 43.9979 28.7974 43.6949 29.1003C43.392 29.4033 42.9811 29.5735 42.5527 29.5735H26.3988C25.9704 29.5735 25.5595 29.4033 25.2566 29.1003C24.9536 28.7974 24.7834 28.3865 24.7834 27.9581V16.6504H0.552673V78.035H49.0142V65.1119C49.0142 64.8858 49.0142 64.6758 49.0142 64.4496C49.1607 63.047 49.7621 61.7308 50.7265 60.7019C50.8328 60.5767 50.9519 60.463 51.0819 60.3627C51.1993 60.2368 51.3292 60.1231 51.4696 60.0235C52.0278 59.587 52.6559 59.2484 53.3273 59.0219C53.4984 58.9519 53.6774 58.903 53.8604 58.8765ZM21.5527 73.1889H8.6296C8.20117 73.1889 7.79029 73.0187 7.48735 72.7157C7.1844 72.4128 7.01421 72.0019 7.01421 71.5735C7.01421 71.145 7.1844 70.7342 7.48735 70.4312C7.79029 70.1283 8.20117 69.9581 8.6296 69.9581H21.5527C21.9811 69.9581 22.392 70.1283 22.6949 70.4312C22.9979 70.7342 23.1681 71.145 23.1681 71.5735C23.1681 72.0019 22.9979 72.4128 22.6949 72.7157C22.392 73.0187 21.9811 73.1889 21.5527 73.1889ZM21.5527 65.1119H8.6296C8.20117 65.1119 7.79029 64.9417 7.48735 64.6388C7.1844 64.3358 7.01421 63.925 7.01421 63.4965C7.01421 63.0681 7.1844 62.6572 7.48735 62.3543C7.79029 62.0513 8.20117 61.8812 8.6296 61.8812H21.5527C21.9811 61.8812 22.392 62.0513 22.6949 62.3543C22.9979 62.6572 23.1681 63.0681 23.1681 63.4965C23.1681 63.925 22.9979 64.3358 22.6949 64.6388C22.392 64.9417 21.9811 65.1119 21.5527 65.1119Z" fill="#FFFFFA"/>
<path d="M40.9373 16.6504H28.0142V26.3427H40.9373V16.6504Z" fill="#FFFFFA"/>
<path d="M63.5527 58.6503H68.3988V48.958C67.1135 48.958 65.8809 49.4686 64.9721 50.3774C64.0633 51.2862 63.5527 52.5189 63.5527 53.8042V58.6503Z" fill="#FFFFFA"/>
</svg>
